<?xml version="1.0" encoding="UTF-8"?>
<svg xmlns="http://www.w3.org/2000/svg" xmlns:xlink="http://www.w3.org/1999/xlink" width="504pt" height="360pt" viewBox="0 0 504 360" version="1.1">
<defs>
<clipPath id="clip1">
  <path d="M 59.039062 59.039062 L 473.757812 59.039062 L 473.757812 286.558594 L 59.039062 286.558594 Z M 59.039062 59.039062 "/>
</clipPath>
</defs>
<g id="surface14">
<rect x="0" y="0" width="504" height="360" style="fill:rgb(100%,100%,100%);fill-opacity:1;stroke:none;"/>
<g clip-path="url(#clip1)" clip-rule="nonzero">
<path style="fill-rule:nonzero;fill:rgb(100%,100%,100%);fill-opacity:1;stroke-width:0.75;stroke-linecap:round;stroke-linejoin:round;stroke:rgb(100%,100%,100%);stroke-opacity:1;stroke-miterlimit:10;" d="M 59.039062 286.558594 L 473.757812 286.558594 L 473.757812 59.039062 L 59.039062 59.039062 Z M 59.039062 286.558594 "/>
</g>
<path style="fill-rule:evenodd;fill:rgb(74.509804%,74.509804%,74.509804%);fill-opacity:1;stroke-width:0.75;stroke-linecap:round;stroke-linejoin:round;stroke:rgb(0%,0%,0%);stroke-opacity:1;stroke-miterlimit:10;" d="M 197.875 119.855469 L 194.925781 117.832031 L 194.007812 117.777344 L 190.929688 114.21875 L 186.253906 111.507812 L 188.105469 107.265625 L 187.910156 104.746094 L 189.332031 101.019531 L 203.394531 101.90625 L 203.296875 103.761719 L 204.28125 105.046875 L 204.777344 106.792969 L 206.816406 109.101562 L 206.964844 110.804688 L 207.921875 112.164062 L 207.957031 112.910156 L 206.902344 113.597656 L 204.097656 113.007812 L 202.695312 113.558594 L 202.511719 114.304688 L 203.011719 116.390625 L 202.433594 117.503906 L 200.746094 117.167969 L 200.488281 118.109375 L 199.679688 118.457031 L 198.734375 119.578125 Z M 197.875 119.855469 "/>
<path style="fill-rule:evenodd;fill:rgb(74.509804%,74.509804%,74.509804%);fill-opacity:1;stroke-width:0.75;stroke-linecap:round;stroke-linejoin:round;stroke:rgb(0%,0%,0%);stroke-opacity:1;stroke-miterlimit:10;" d="M 207.957031 112.910156 L 207.921875 112.164062 L 206.964844 110.804688 L 206.816406 109.101562 L 204.777344 106.792969 L 204.28125 105.046875 L 203.296875 103.761719 L 203.394531 101.90625 L 222.527344 102.3125 L 221.226562 105.859375 L 219.828125 107.507812 L 220.527344 110.292969 L 220.234375 110.871094 L 219.300781 111.53125 L 219.089844 112.566406 L 218.226562 112.839844 L 217.28125 112.25 L 216.492188 110.523438 L 214.699219 109.488281 L 214.078125 109.421875 L 213.441406 109.863281 L 212.742188 109.675781 L 212.351562 110.140625 L 211.703125 109.761719 L 210.695312 110.253906 Z M 207.957031 112.910156 "/>
<path style="fill-rule:evenodd;fill:rgb(74.509804%,74.509804%,74.509804%);fill-opacity:1;stroke-width:0.75;stroke-linecap:round;stroke-linejoin:round;stroke:rgb(0%,0%,0%);stroke-opacity:1;stroke-miterlimit:10;" d="M 241.890625 119.421875 L 241.023438 118.777344 L 238.402344 118.667969 L 238.050781 117.613281 L 237.65625 117.519531 L 236.078125 118.058594 L 234.617188 117.800781 L 232.75 119.234375 L 231.484375 118.542969 L 230.296875 118.578125 L 229.851562 118.242188 L 229.0625 118.585938 L 228.46875 118.398438 L 227.757812 119.101562 L 223.785156 119.882812 L 223.9375 115.070312 L 223.15625 113.488281 L 221.613281 112.519531 L 220.234375 110.871094 L 220.527344 110.292969 L 219.828125 107.507812 L 221.226562 105.859375 L 222.527344 102.3125 L 225.355469 102.40625 L 235.191406 102.734375 L 242.800781 103.066406 L 242.035156 118.652344 Z M 241.890625 119.421875 "/>
<path style="fill-rule:evenodd;fill:rgb(74.509804%,74.509804%,74.509804%);fill-opacity:1;stroke-width:0.75;stroke-linecap:round;stroke-linejoin:round;stroke:rgb(0%,0%,0%);stroke-opacity:1;stroke-miterlimit:10;" d="M 434.496094 115.335938 L 434.132812 114.375 L 433.460938 114.46875 L 432.980469 113.535156 L 430.765625 113.78125 L 427.914062 111.503906 L 428.035156 110.402344 L 427.59375 109.636719 L 420.582031 102.800781 L 429.367188 102.742188 L 432.894531 102.75 L 433.445312 105.007812 L 430.9375 105.582031 L 435.917969 109.152344 L 436.191406 110.273438 L 434.8125 110.070312 L 436.996094 112.902344 L 437.996094 109.839844 L 438.148438 113.675781 L 443.542969 126.300781 L 443.59375 128.421875 L 441.15625 126.679688 L 438.617188 119.300781 L 436.722656 118.523438 L 437.398438 116.675781 Z M 434.496094 115.335938 "/>
<path style="fill-rule:evenodd;fill:rgb(74.509804%,74.509804%,74.509804%);fill-opacity:1;stroke-width:0.75;stroke-linecap:round;stroke-linejoin:round;stroke:rgb(0%,0%,0%);stroke-opacity:1;stroke-miterlimit:10;" d="M 433.707031 102.765625 L 434.941406 102.765625 L 438.699219 103.515625 L 438.140625 107.152344 L 435.867188 106.9375 L 435.910156 104.820312 Z M 433.707031 102.765625 "/>
<path style="fill-rule:evenodd;fill:rgb(74.509804%,74.509804%,74.509804%);fill-opacity:1;stroke-width:0.75;stroke-linecap:round;stroke-linejoin:round;stroke:rgb(0%,0%,0%);stroke-opacity:1;stroke-miterlimit:10;" d="M 439.128906 102.792969 L 440.160156 102.808594 L 444.707031 120.125 L 444.273438 120.34375 Z M 439.128906 102.792969 "/>
<path style="fill-rule:evenodd;fill:rgb(74.509804%,74.509804%,74.509804%);fill-opacity:1;stroke-width:0.75;stroke-linecap:round;stroke-linejoin:round;stroke:rgb(0%,0%,0%);stroke-opacity:1;stroke-miterlimit:10;" d="M 382.148438 119.503906 L 381.414062 120.902344 L 378.644531 121.066406 L 378.863281 123.648438 L 378.171875 123.652344 L 377.070312 122.585938 L 374.726562 121.511719 L 375.179688 119.550781 L 373.667969 118.71875 L 373.4375 117.339844 L 371.910156 115.328125 L 368.273438 116.246094 L 367.433594 116.152344 L 366.804688 115.605469 L 366.453125 114.875 L 367.335938 112.347656 L 367.304688 110.734375 L 364.035156 108.925781 L 363.382812 107.222656 L 361.308594 106.886719 L 359.121094 107.171875 L 352.546875 105.246094 L 352.648438 102.964844 L 358.492188 102.9375 L 377.714844 102.914062 L 383.894531 102.785156 L 384.886719 104.378906 L 387.585938 105.371094 L 388.316406 106.644531 L 387.96875 107.355469 L 386.0625 107.324219 L 385.542969 108.078125 L 385.429688 110.167969 Z M 382.148438 119.503906 "/>
<path style="fill-rule:evenodd;fill:rgb(74.509804%,74.509804%,74.509804%);fill-opacity:1;stroke-width:0.75;stroke-linecap:round;stroke-linejoin:round;stroke:rgb(0%,0%,0%);stroke-opacity:1;stroke-miterlimit:10;" d="M 402.617188 119.878906 L 392.414062 120.074219 L 391.804688 119.792969 L 385.941406 119.902344 L 382.148438 119.503906 L 385.429688 110.167969 L 385.542969 108.078125 L 386.0625 107.324219 L 387.96875 107.355469 L 388.316406 106.644531 L 387.585938 105.371094 L 384.886719 104.378906 L 383.894531 102.785156 L 394.863281 102.898438 L 395.542969 105.542969 L 393.925781 107.945312 L 393.582031 110.054688 L 394.023438 110.980469 L 394.863281 111.472656 L 402.777344 115.570312 L 404.242188 118.171875 Z M 402.617188 119.878906 "/>
<path style="fill-rule:evenodd;fill:rgb(74.509804%,74.509804%,74.509804%);fill-opacity:1;stroke-width:0.75;stroke-linecap:round;stroke-linejoin:round;stroke:rgb(0%,0%,0%);stroke-opacity:1;stroke-miterlimit:10;" d="M 434.496094 115.335938 L 436.738281 122.007812 L 435.691406 123.28125 L 426.949219 115.566406 L 426.503906 115.058594 L 425.519531 114.898438 L 424.554688 113.128906 L 423.566406 112.996094 L 423.011719 112.058594 L 421.746094 111.503906 L 420.964844 110.5625 L 417.300781 108.574219 L 413.300781 105.5625 L 410.476562 102.839844 L 413.335938 102.8125 L 420.582031 102.800781 L 427.59375 109.636719 L 428.035156 110.402344 L 427.914062 111.503906 L 430.765625 113.78125 L 432.980469 113.535156 L 433.460938 114.46875 L 434.132812 114.375 Z M 434.496094 115.335938 "/>
<path style="fill-rule:evenodd;fill:rgb(74.509804%,74.509804%,74.509804%);fill-opacity:1;stroke-width:0.75;stroke-linecap:round;stroke-linejoin:round;stroke:rgb(0%,0%,0%);stroke-opacity:1;stroke-miterlimit:10;" d="M 410.523438 114.222656 L 408.714844 115.582031 L 406.8125 115.5625 L 405.054688 116.667969 L 401.25 113.28125 L 394.863281 111.472656 L 394.023438 110.980469 L 393.582031 110.054688 L 393.925781 107.945312 L 395.542969 105.542969 L 394.863281 102.898438 L 394.96875 102.898438 L 410.476562 102.839844 L 413.300781 105.5625 L 413.121094 108.300781 L 414.945312 112.457031 Z M 410.523438 114.222656 "/>
<path style="fill-rule:evenodd;fill:rgb(74.509804%,74.509804%,74.509804%);fill-opacity:1;stroke-width:0.75;stroke-linecap:round;stroke-linejoin:round;stroke:rgb(0%,0%,0%);stroke-opacity:1;stroke-miterlimit:10;" d="M 334.898438 118.496094 L 336.015625 116.804688 L 334.355469 103.355469 L 346.03125 102.988281 L 352.648438 102.964844 L 352.546875 105.246094 L 351.867188 105.738281 L 351.292969 113.566406 L 350.34375 117.371094 L 347.996094 121.894531 L 345.742188 121.078125 L 343.519531 120.960938 L 342.433594 119.738281 Z M 334.898438 118.496094 "/>
<path style="fill-rule:evenodd;fill:rgb(74.509804%,74.509804%,74.509804%);fill-opacity:1;stroke-width:0.75;stroke-linecap:round;stroke-linejoin:round;stroke:rgb(0%,0%,0%);stroke-opacity:1;stroke-miterlimit:10;" d="M 260.542969 119.015625 L 242.035156 118.652344 L 242.800781 103.066406 L 259.570312 103.273438 L 260.613281 103.382812 Z M 260.542969 119.015625 "/>
<path style="fill-rule:evenodd;fill:rgb(74.509804%,74.509804%,74.509804%);fill-opacity:1;stroke-width:0.75;stroke-linecap:round;stroke-linejoin:round;stroke:rgb(0%,0%,0%);stroke-opacity:1;stroke-miterlimit:10;" d="M 281.988281 119.230469 L 282.863281 103.246094 L 295.5625 103.132812 L 298.710938 103.328125 L 298.0625 119.890625 L 293.765625 119.785156 Z M 281.988281 119.230469 "/>
<path style="fill-rule:evenodd;fill:rgb(74.509804%,74.509804%,74.509804%);fill-opacity:1;stroke-width:0.75;stroke-linecap:round;stroke-linejoin:round;stroke:rgb(0%,0%,0%);stroke-opacity:1;stroke-miterlimit:10;" d="M 281.988281 119.230469 L 281.984375 119.761719 L 260.542969 119.015625 L 260.613281 103.382812 L 273.890625 103.230469 L 282.863281 103.246094 Z M 281.988281 119.230469 "/>
<path style="fill-rule:evenodd;fill:rgb(74.509804%,74.509804%,74.509804%);fill-opacity:1;stroke-width:0.75;stroke-linecap:round;stroke-linejoin:round;stroke:rgb(0%,0%,0%);stroke-opacity:1;stroke-miterlimit:10;" d="M 315.828125 128.910156 L 314.125 128.984375 L 313.449219 127.992188 L 313.175781 126.207031 L 313.328125 120.003906 L 313.765625 103.464844 L 316.335938 103.328125 L 328.398438 103.570312 L 328.183594 104.507812 L 326.507812 105.539062 L 325.875 107.8125 L 325.976562 122.992188 L 326.9375 123.078125 L 324.628906 128.671875 L 324.535156 131.53125 L 318.144531 128.75 Z M 315.828125 128.910156 "/>
<path style="fill-rule:evenodd;fill:rgb(74.509804%,74.509804%,74.509804%);fill-opacity:1;stroke-width:0.75;stroke-linecap:round;stroke-linejoin:round;stroke:rgb(0%,0%,0%);stroke-opacity:1;stroke-miterlimit:10;" d="M 313.328125 120.003906 L 307.078125 119.882812 L 298.0625 119.890625 L 298.710938 103.328125 L 313.765625 103.464844 Z M 313.328125 120.003906 "/>
<path style="fill-rule:evenodd;fill:rgb(74.509804%,74.509804%,74.509804%);fill-opacity:1;stroke-width:0.75;stroke-linecap:round;stroke-linejoin:round;stroke:rgb(0%,0%,0%);stroke-opacity:1;stroke-miterlimit:10;" d="M 326.9375 123.078125 L 325.976562 122.992188 L 325.875 107.8125 L 326.507812 105.539062 L 328.183594 104.507812 L 328.398438 103.570312 L 334.355469 103.355469 L 336.015625 116.804688 L 334.898438 118.496094 L 333.28125 120.34375 L 331.773438 120.367188 L 330.210938 123.683594 Z M 326.9375 123.078125 "/>
<path style="fill-rule:evenodd;fill:rgb(74.509804%,74.509804%,74.509804%);fill-opacity:1;stroke-width:0.75;stroke-linecap:round;stroke-linejoin:round;stroke:rgb(0%,0%,0%);stroke-opacity:1;stroke-miterlimit:10;" d="M 377.1875 128.675781 L 374.023438 132.5625 L 373.136719 132.492188 L 372.597656 131.539062 L 371.484375 130.882812 L 368.832031 130.40625 L 368.371094 129.335938 L 368.332031 127.914062 L 367.847656 127.589844 L 365.320312 127.117188 L 363.757812 125.5625 L 361.882812 124.507812 L 361.238281 124.636719 L 360.386719 125.171875 L 359.21875 124.519531 L 356.871094 124.632812 L 356.441406 125.082031 L 353.167969 124.625 L 351.828125 123.96875 L 351.628906 122.859375 L 350.902344 122.335938 L 350.179688 122.539062 L 349.421875 122.257812 L 348.914062 122.875 L 347.996094 121.894531 L 350.34375 117.371094 L 351.292969 113.566406 L 351.867188 105.738281 L 352.546875 105.246094 L 359.121094 107.171875 L 361.308594 106.886719 L 363.382812 107.222656 L 364.035156 108.925781 L 367.304688 110.734375 L 367.335938 112.347656 L 366.453125 114.875 L 366.804688 115.605469 L 367.433594 116.152344 L 368.273438 116.246094 L 371.910156 115.328125 L 373.4375 117.339844 L 373.667969 118.71875 L 375.179688 119.550781 L 374.726562 121.511719 L 377.070312 122.585938 L 378.171875 123.652344 L 378.863281 123.648438 L 379.867188 124.035156 L 380.492188 125.351562 L 380.425781 126 L 381.136719 126.910156 L 378.15625 127.644531 Z M 377.1875 128.675781 "/>
<path style="fill-rule:evenodd;fill:rgb(74.509804%,74.509804%,74.509804%);fill-opacity:1;stroke-width:0.75;stroke-linecap:round;stroke-linejoin:round;stroke:rgb(0%,0%,0%);stroke-opacity:1;stroke-miterlimit:10;" d="M 421.9375 120.921875 L 420.839844 119.894531 L 418.753906 118.902344 L 414.945312 112.457031 L 413.121094 108.300781 L 413.300781 105.5625 L 417.300781 108.574219 L 420.964844 110.5625 L 421.746094 111.503906 L 423.011719 112.058594 L 423.566406 112.996094 L 424.554688 113.128906 L 425.519531 114.898438 L 426.503906 115.058594 L 426.949219 115.566406 L 425.402344 116.554688 L 430.003906 123.035156 L 428.734375 124.453125 L 424.707031 123.621094 Z M 421.9375 120.921875 "/>
<path style="fill-rule:evenodd;fill:rgb(74.509804%,74.509804%,74.509804%);fill-opacity:1;stroke-width:0.75;stroke-linecap:round;stroke-linejoin:round;stroke:rgb(0%,0%,0%);stroke-opacity:1;stroke-miterlimit:10;" d="M 217.457031 130.429688 L 214.707031 131.179688 L 212.972656 130.625 L 211.527344 131.167969 L 208.125 131.019531 L 204.40625 132.847656 L 203.304688 131.46875 L 201.511719 130.289062 L 201.105469 129.308594 L 199.742188 128.800781 L 198.667969 127.878906 L 195.945312 127.222656 L 194.695312 126.375 L 196.722656 125.070312 L 198.824219 122.175781 L 197.875 119.855469 L 198.734375 119.578125 L 199.679688 118.457031 L 200.488281 118.109375 L 200.746094 117.167969 L 202.433594 117.503906 L 203.011719 116.390625 L 202.511719 114.304688 L 202.695312 113.558594 L 204.097656 113.007812 L 206.902344 113.597656 L 207.957031 112.910156 L 210.695312 110.253906 L 211.703125 109.761719 L 212.351562 110.140625 L 212.742188 109.675781 L 213.441406 109.863281 L 214.078125 109.421875 L 214.699219 109.488281 L 216.492188 110.523438 L 217.28125 112.25 L 218.226562 112.839844 L 219.089844 112.566406 L 219.300781 111.53125 L 220.234375 110.871094 L 221.613281 112.519531 L 223.15625 113.488281 L 223.9375 115.070312 L 223.785156 119.882812 L 223.65625 129.503906 L 218.824219 129.453125 Z M 217.457031 130.429688 "/>
<path style="fill-rule:evenodd;fill:rgb(74.509804%,74.509804%,74.509804%);fill-opacity:1;stroke-width:0.75;stroke-linecap:round;stroke-linejoin:round;stroke:rgb(0%,0%,0%);stroke-opacity:1;stroke-miterlimit:10;" d="M 183.433594 126.738281 L 182.957031 126.480469 L 182.734375 123.914062 L 181.523438 122.660156 L 180.011719 122.28125 L 179.433594 121.738281 L 179.085938 120.519531 L 179.628906 118.125 L 178.886719 116.867188 L 182.378906 114.539062 L 186.710938 114.820312 L 187.621094 114.585938 L 186.28125 113.09375 L 186.253906 111.507812 L 190.929688 114.21875 L 194.007812 117.777344 L 194.925781 117.832031 L 197.875 119.855469 L 198.824219 122.175781 L 196.722656 125.070312 L 194.695312 126.375 L 189.808594 126.046875 Z M 183.433594 126.738281 "/>
<path style="fill-rule:evenodd;fill:rgb(74.509804%,74.509804%,74.509804%);fill-opacity:1;stroke-width:0.75;stroke-linecap:round;stroke-linejoin:round;stroke:rgb(0%,0%,0%);stroke-opacity:1;stroke-miterlimit:10;" d="M 414.074219 128.050781 L 411.628906 127.621094 L 409.957031 126.839844 L 409.136719 119.566406 L 410.152344 117.554688 L 410.523438 114.222656 L 414.945312 112.457031 L 418.753906 118.902344 L 420.839844 119.894531 L 421.9375 120.921875 L 422.953125 126.429688 Z M 414.074219 128.050781 "/>
<path style="fill-rule:evenodd;fill:rgb(74.509804%,74.509804%,74.509804%);fill-opacity:1;stroke-width:0.75;stroke-linecap:round;stroke-linejoin:round;stroke:rgb(0%,0%,0%);stroke-opacity:1;stroke-miterlimit:10;" d="M 405.054688 116.667969 L 406.8125 115.5625 L 408.714844 115.582031 L 410.523438 114.222656 L 410.152344 117.554688 L 409.136719 119.566406 L 409.957031 126.839844 L 411.628906 127.621094 L 414.074219 128.050781 L 416.675781 129.175781 L 412.234375 131.902344 L 409.160156 131.746094 L 406.777344 128.796875 L 407.460938 130.3125 L 404.996094 129.652344 L 403.421875 123.96875 Z M 405.054688 116.667969 "/>
<path style="fill-rule:evenodd;fill:rgb(74.509804%,74.509804%,74.509804%);fill-opacity:1;stroke-width:0.75;stroke-linecap:round;stroke-linejoin:round;stroke:rgb(0%,0%,0%);stroke-opacity:1;stroke-miterlimit:10;" d="M 177.578125 134.667969 L 176.710938 135.503906 L 177.421875 136.597656 L 177.335938 137.03125 L 175.542969 137.285156 L 174.820312 136.820312 L 172.914062 134.019531 L 173.1875 132.015625 L 172.339844 130.398438 L 171.671875 126.972656 L 174.152344 125.40625 L 177.9375 118.320312 L 178.886719 116.867188 L 179.628906 118.125 L 179.085938 120.519531 L 179.433594 121.738281 L 180.011719 122.28125 L 181.523438 122.660156 L 182.734375 123.914062 L 182.957031 126.480469 L 183.433594 126.738281 L 186.632812 129.179688 L 183.582031 134.386719 L 181.109375 133.855469 L 180.203125 132.835938 L 179.332031 132.566406 L 178.410156 133.210938 Z M 177.578125 134.667969 "/>
<path style="fill-rule:evenodd;fill:rgb(74.509804%,74.509804%,74.509804%);fill-opacity:1;stroke-width:0.75;stroke-linecap:round;stroke-linejoin:round;stroke:rgb(0%,0%,0%);stroke-opacity:1;stroke-miterlimit:10;" d="M 240.195312 129.988281 L 231.789062 129.871094 L 223.65625 129.503906 L 223.785156 119.882812 L 227.757812 119.101562 L 228.46875 118.398438 L 229.0625 118.585938 L 229.851562 118.242188 L 230.296875 118.578125 L 231.484375 118.542969 L 232.75 119.234375 L 234.617188 117.800781 L 236.078125 118.058594 L 237.65625 117.519531 L 238.050781 117.613281 L 238.402344 118.667969 L 241.023438 118.777344 L 241.890625 119.421875 L 242.5625 120.644531 L 242.390625 125.742188 L 240.347656 126.570312 L 239.785156 127.25 L 239.644531 128.523438 Z M 240.195312 129.988281 "/>
<path style="fill-rule:evenodd;fill:rgb(74.509804%,74.509804%,74.509804%);fill-opacity:1;stroke-width:0.75;stroke-linecap:round;stroke-linejoin:round;stroke:rgb(0%,0%,0%);stroke-opacity:1;stroke-miterlimit:10;" d="M 337.246094 142.0625 L 336.710938 140.320312 L 334.914062 137.929688 L 333.996094 138.226562 L 332.671875 136.59375 L 331.183594 135.871094 L 329.597656 133.730469 L 324.535156 131.53125 L 324.628906 128.671875 L 326.9375 123.078125 L 330.210938 123.683594 L 331.773438 120.367188 L 333.28125 120.34375 L 334.898438 118.496094 L 342.433594 119.738281 L 343.519531 120.960938 L 345.742188 121.078125 L 347.996094 121.894531 L 342.597656 131.144531 Z M 337.246094 142.0625 "/>
<path style="fill-rule:evenodd;fill:rgb(74.509804%,74.509804%,74.509804%);fill-opacity:1;stroke-width:0.75;stroke-linecap:round;stroke-linejoin:round;stroke:rgb(0%,0%,0%);stroke-opacity:1;stroke-miterlimit:10;" d="M 260.003906 131.953125 L 256.40625 131.140625 L 252.566406 131.144531 L 252.46875 132.804688 L 247.175781 132.675781 L 247.351562 133.277344 L 245.1875 133.980469 L 243.828125 133.097656 L 243.554688 131.824219 L 242.167969 130.699219 L 241.523438 129.621094 L 240.6875 130.25 L 240.195312 129.988281 L 239.644531 128.523438 L 239.785156 127.25 L 240.347656 126.570312 L 242.390625 125.742188 L 242.5625 120.644531 L 241.890625 119.421875 L 242.035156 118.652344 L 260.542969 119.015625 Z M 260.003906 131.953125 "/>
<path style="fill-rule:evenodd;fill:rgb(74.509804%,74.509804%,74.509804%);fill-opacity:1;stroke-width:0.75;stroke-linecap:round;stroke-linejoin:round;stroke:rgb(0%,0%,0%);stroke-opacity:1;stroke-miterlimit:10;" d="M 281.671875 138.0625 L 259.808594 136.691406 L 260.003906 131.953125 L 260.542969 119.015625 L 281.984375 119.761719 Z M 281.671875 138.0625 "/>
<path style="fill-rule:evenodd;fill:rgb(74.509804%,74.509804%,74.509804%);fill-opacity:1;stroke-width:0.75;stroke-linecap:round;stroke-linejoin:round;stroke:rgb(0%,0%,0%);stroke-opacity:1;stroke-miterlimit:10;" d="M 294.300781 139.273438 L 294.65625 140.910156 L 281.53125 140.925781 L 281.671875 138.0625 L 281.984375 119.761719 L 281.988281 119.230469 L 293.765625 119.785156 L 293.710938 129.742188 L 293.234375 137.339844 Z M 294.300781 139.273438 "/>
<path style="fill-rule:evenodd;fill:rgb(74.509804%,74.509804%,74.509804%);fill-opacity:1;stroke-width:0.75;stroke-linecap:round;stroke-linejoin:round;stroke:rgb(0%,0%,0%);stroke-opacity:1;stroke-miterlimit:10;" d="M 400.972656 139.746094 L 399.78125 138.574219 L 398.730469 138.421875 L 397.78125 140.988281 L 396.839844 141.96875 L 395.972656 142.132812 L 395.699219 139.285156 L 394.34375 137.871094 L 391.976562 138.757812 L 391.382812 139.609375 L 389.484375 139.839844 L 390.097656 136.824219 L 389.804688 135.902344 L 388.703125 135.675781 L 387.679688 136.246094 L 383.40625 135.925781 L 383.09375 135.675781 L 383.199219 132.914062 L 382.242188 132.863281 L 382.316406 131.996094 L 379.59375 130.8125 L 377.921875 129.734375 L 377.1875 128.675781 L 378.15625 127.644531 L 381.136719 126.910156 L 380.425781 126 L 380.492188 125.351562 L 379.867188 124.035156 L 378.863281 123.648438 L 378.644531 121.066406 L 381.414062 120.902344 L 382.148438 119.503906 L 385.941406 119.902344 L 391.804688 119.792969 L 392.414062 120.074219 L 402.617188 119.878906 L 401.941406 124.617188 L 404.839844 132.65625 L 402.785156 135.640625 L 404.6875 135.382812 L 404.207031 136.53125 L 403.328125 137.007812 L 402.761719 138.480469 L 401.914062 139.464844 Z M 400.972656 139.746094 "/>
<path style="fill-rule:evenodd;fill:rgb(74.509804%,74.509804%,74.509804%);fill-opacity:1;stroke-width:0.75;stroke-linecap:round;stroke-linejoin:round;stroke:rgb(0%,0%,0%);stroke-opacity:1;stroke-miterlimit:10;" d="M 304.175781 139.816406 L 300.832031 140.027344 L 294.300781 139.273438 L 293.234375 137.339844 L 293.710938 129.742188 L 293.765625 119.785156 L 298.0625 119.890625 L 307.078125 119.882812 Z M 304.175781 139.816406 "/>
<path style="fill-rule:evenodd;fill:rgb(74.509804%,74.509804%,74.509804%);fill-opacity:1;stroke-width:0.75;stroke-linecap:round;stroke-linejoin:round;stroke:rgb(0%,0%,0%);stroke-opacity:1;stroke-miterlimit:10;" d="M 304.175781 139.816406 L 307.078125 119.882812 L 313.328125 120.003906 L 313.175781 126.207031 L 313.449219 127.992188 L 314.125 128.984375 L 315.828125 128.910156 L 315.640625 131.675781 L 316.738281 130.847656 L 317.253906 130.878906 L 317.773438 132.421875 L 317.636719 133.503906 L 316.472656 135.75 L 315.203125 136.816406 L 313.261719 136.527344 L 312.414062 139.691406 L 309.042969 139.675781 Z M 304.175781 139.816406 "/>
<path style="fill-rule:evenodd;fill:rgb(74.509804%,74.509804%,74.509804%);fill-opacity:1;stroke-width:0.75;stroke-linecap:round;stroke-linejoin:round;stroke:rgb(0%,0%,0%);stroke-opacity:1;stroke-miterlimit:10;" d="M 340.171875 146.855469 L 339.363281 146.84375 L 339.105469 146.164062 L 338.132812 145.761719 L 337.246094 142.0625 L 342.597656 131.144531 L 347.996094 121.894531 L 348.914062 122.875 L 349.421875 122.257812 L 350.179688 122.539062 L 350.902344 122.335938 L 351.628906 122.859375 L 351.828125 123.96875 L 353.167969 124.625 L 356.441406 125.082031 L 356.871094 124.632812 L 359.21875 124.519531 L 360.386719 125.171875 L 361.238281 124.636719 L 355.625 139.996094 L 354.984375 141 L 353.765625 140.515625 Z M 340.171875 146.855469 "/>
<path style="fill-rule:evenodd;fill:rgb(74.509804%,74.509804%,74.509804%);fill-opacity:1;stroke-width:0.75;stroke-linecap:round;stroke-linejoin:round;stroke:rgb(0%,0%,0%);stroke-opacity:1;stroke-miterlimit:10;" d="M 169.890625 141.902344 L 168.6875 141.90625 L 168.933594 137.570312 L 168.5625 136.445312 L 167.042969 135.734375 L 166.5625 135.070312 L 166.417969 132.1875 L 164.988281 132.078125 L 164.621094 133.121094 L 163.828125 133.042969 L 161.972656 130.726562 L 161.628906 131.671875 L 160.761719 131.527344 L 160.304688 130.933594 L 160.121094 128.558594 L 158.359375 128.121094 L 157.351562 128.289062 L 158.847656 127.050781 L 161.53125 125.804688 L 163.679688 125.898438 L 166.042969 124.488281 L 168.367188 124.878906 L 169.925781 127.179688 L 171.671875 126.972656 L 172.339844 130.398438 L 173.1875 132.015625 L 172.914062 134.019531 L 174.820312 136.820312 L 175.542969 137.285156 L 175.761719 138.242188 L 175.433594 139.042969 L 173.539062 140.046875 L 170.796875 140.5625 Z M 169.890625 141.902344 "/>
<path style="fill-rule:evenodd;fill:rgb(74.509804%,74.509804%,74.509804%);fill-opacity:1;stroke-width:0.75;stroke-linecap:round;stroke-linejoin:round;stroke:rgb(0%,0%,0%);stroke-opacity:1;stroke-miterlimit:10;" d="M 362.507812 149.765625 L 359.824219 146.089844 L 358.769531 142.988281 L 358.878906 141.570312 L 358.351562 140.933594 L 355.625 139.996094 L 361.238281 124.636719 L 361.882812 124.507812 L 363.757812 125.5625 L 365.320312 127.117188 L 367.847656 127.589844 L 368.332031 127.914062 L 368.371094 129.335938 L 368.832031 130.40625 L 371.484375 130.882812 L 372.597656 131.539062 L 373.136719 132.492188 L 374.023438 132.5625 L 376.75 137.160156 L 376.066406 142.074219 L 374.390625 141.378906 L 374.007812 141.972656 L 373.449219 141.714844 L 373.085938 142.453125 L 371.882812 143.214844 L 371.082031 142.90625 L 369.683594 144.648438 Z M 362.507812 149.765625 "/>
<path style="fill-rule:evenodd;fill:rgb(74.509804%,74.509804%,74.509804%);fill-opacity:1;stroke-width:0.75;stroke-linecap:round;stroke-linejoin:round;stroke:rgb(0%,0%,0%);stroke-opacity:1;stroke-miterlimit:10;" d="M 204.136719 143.148438 L 202.035156 145.535156 L 200.261719 145.222656 L 198.550781 143.949219 L 194.082031 144.1875 L 192.648438 142.191406 L 187.953125 139.238281 L 185.933594 136.484375 L 184.851562 136.40625 L 184.753906 135.253906 L 183.582031 134.386719 L 186.632812 129.179688 L 183.433594 126.738281 L 189.808594 126.046875 L 194.695312 126.375 L 195.945312 127.222656 L 198.667969 127.878906 L 199.742188 128.800781 L 201.105469 129.308594 L 201.511719 130.289062 L 203.304688 131.46875 L 204.40625 132.847656 L 204.085938 132.851562 L 203.640625 136.035156 L 204.027344 138.867188 L 203.742188 141.421875 Z M 204.136719 143.148438 "/>
<path style="fill-rule:evenodd;fill:rgb(74.509804%,74.509804%,74.509804%);fill-opacity:1;stroke-width:0.75;stroke-linecap:round;stroke-linejoin:round;stroke:rgb(0%,0%,0%);stroke-opacity:1;stroke-miterlimit:10;" d="M 162.949219 148.316406 L 162.84375 147.117188 L 161.101562 146.074219 L 160.234375 144.820312 L 160.082031 142.609375 L 158.789062 142.015625 L 157.464844 142.144531 L 155.921875 138.527344 L 153.945312 137.324219 L 154.082031 135.058594 L 153.085938 133.738281 L 154.460938 132.644531 L 157.351562 128.289062 L 158.359375 128.121094 L 160.121094 128.558594 L 160.304688 130.933594 L 160.761719 131.527344 L 161.628906 131.671875 L 161.972656 130.726562 L 163.828125 133.042969 L 164.621094 133.121094 L 164.988281 132.078125 L 166.417969 132.1875 L 166.5625 135.070312 L 167.042969 135.734375 L 168.5625 136.445312 L 168.933594 137.570312 L 168.6875 141.90625 L 169.890625 141.902344 L 168.34375 142.972656 L 167.925781 144.980469 L 165.867188 147.289062 Z M 162.949219 148.316406 "/>
<path style="fill-rule:evenodd;fill:rgb(74.509804%,74.509804%,74.509804%);fill-opacity:1;stroke-width:0.75;stroke-linecap:round;stroke-linejoin:round;stroke:rgb(0%,0%,0%);stroke-opacity:1;stroke-miterlimit:10;" d="M 383.847656 146.480469 L 382.582031 145.265625 L 380.28125 145.054688 L 380.121094 143.800781 L 376.066406 142.074219 L 376.75 137.160156 L 374.023438 132.5625 L 377.1875 128.675781 L 377.921875 129.734375 L 379.59375 130.8125 L 382.316406 131.996094 L 382.242188 132.863281 L 383.199219 132.914062 L 383.09375 135.675781 L 383.40625 135.925781 L 387.679688 136.246094 L 388.703125 135.675781 L 389.804688 135.902344 L 390.097656 136.824219 L 389.484375 139.839844 L 391.382812 139.609375 L 391.976562 138.757812 L 394.34375 137.871094 L 395.699219 139.285156 L 395.972656 142.132812 L 396.839844 141.96875 L 397.78125 140.988281 L 398.730469 138.421875 L 399.78125 138.574219 L 400.972656 139.746094 L 399.949219 142.3125 L 400.007812 143.398438 L 399.113281 145.171875 L 398.578125 147.898438 L 392.445312 150.832031 L 384.589844 146.238281 Z M 383.847656 146.480469 "/>
<path style="fill-rule:evenodd;fill:rgb(74.509804%,74.509804%,74.509804%);fill-opacity:1;stroke-width:0.75;stroke-linecap:round;stroke-linejoin:round;stroke:rgb(0%,0%,0%);stroke-opacity:1;stroke-miterlimit:10;" d="M 308.378906 154.613281 L 305.011719 153.421875 L 307.609375 144.929688 L 307.367188 144.472656 L 309.042969 139.675781 L 312.414062 139.691406 L 313.261719 136.527344 L 315.203125 136.816406 L 316.472656 135.75 L 317.636719 133.503906 L 317.773438 132.421875 L 317.253906 130.878906 L 316.738281 130.847656 L 315.640625 131.675781 L 315.828125 128.910156 L 318.144531 128.75 L 324.535156 131.53125 L 329.597656 133.730469 L 331.183594 135.871094 L 332.671875 136.59375 L 333.996094 138.226562 L 334.914062 137.929688 L 336.710938 140.320312 L 337.246094 142.0625 L 327.582031 148.421875 L 317.8125 157.734375 Z M 308.378906 154.613281 "/>
<path style="fill-rule:evenodd;fill:rgb(74.509804%,74.509804%,74.509804%);fill-opacity:1;stroke-width:0.75;stroke-linecap:round;stroke-linejoin:round;stroke:rgb(0%,0%,0%);stroke-opacity:1;stroke-miterlimit:10;" d="M 136.238281 135.019531 L 137.957031 135.070312 L 140.019531 136.476562 L 141.414062 134.585938 L 141.539062 132.945312 L 141.984375 132.304688 L 147.15625 129.539062 L 147.839844 129.402344 L 148.863281 130.003906 L 149.390625 131.089844 L 148.804688 132.09375 L 149.085938 134.226562 L 151.042969 134.609375 L 153.085938 133.738281 L 154.082031 135.058594 L 153.945312 137.324219 L 155.921875 138.527344 L 157.464844 142.144531 L 153.363281 143.089844 L 141.851562 148.507812 L 140.148438 148.988281 L 138.519531 148.628906 L 136.882812 149.589844 L 135.738281 146.710938 L 133.804688 146.121094 L 134.199219 144.664062 L 133.34375 143.316406 L 135.769531 139.058594 L 135.453125 136.105469 Z M 136.238281 135.019531 "/>
<path style="fill-rule:evenodd;fill:rgb(74.509804%,74.509804%,74.509804%);fill-opacity:1;stroke-width:0.75;stroke-linecap:round;stroke-linejoin:round;stroke:rgb(0%,0%,0%);stroke-opacity:1;stroke-miterlimit:10;" d="M 230.191406 158.390625 L 228.039062 158.433594 L 220.28125 158.308594 L 220.464844 157.273438 L 220.015625 156.484375 L 221.324219 152.453125 L 218.191406 148.34375 L 215.972656 147.476562 L 215.21875 145.875 L 213.632812 144.375 L 216.21875 140.980469 L 218.546875 133.496094 L 217.457031 130.429688 L 218.824219 129.453125 L 223.65625 129.503906 L 231.789062 129.871094 L 231.082031 140.148438 L 228.476562 149.140625 Z M 230.191406 158.390625 "/>
<path style="fill-rule:evenodd;fill:rgb(74.509804%,74.509804%,74.509804%);fill-opacity:1;stroke-width:0.75;stroke-linecap:round;stroke-linejoin:round;stroke:rgb(0%,0%,0%);stroke-opacity:1;stroke-miterlimit:10;" d="M 241.871094 145.761719 L 240.488281 144.179688 L 238.84375 143.851562 L 236.867188 142.152344 L 235.34375 141.707031 L 234.15625 140.75 L 231.082031 140.148438 L 231.789062 129.871094 L 240.195312 129.988281 L 240.6875 130.25 L 241.523438 129.621094 L 242.167969 130.699219 L 243.554688 131.824219 L 243.828125 133.097656 L 245.1875 133.980469 L 245.929688 135.351562 L 245.988281 137.804688 L 244.074219 138.414062 L 244.914062 139.78125 L 244.917969 140.476562 L 244.527344 140.792969 L 243.691406 140.507812 L 243.203125 141.28125 L 242.316406 141.257812 L 241.828125 141.695312 L 240.890625 141.121094 L 241.175781 143.621094 L 242.136719 144.75 Z M 241.871094 145.761719 "/>
<path style="fill-rule:evenodd;fill:rgb(74.509804%,74.509804%,74.509804%);fill-opacity:1;stroke-width:0.75;stroke-linecap:round;stroke-linejoin:round;stroke:rgb(0%,0%,0%);stroke-opacity:1;stroke-miterlimit:10;" d="M 213.632812 144.375 L 212.835938 143.472656 L 212.222656 141.648438 L 204.136719 143.148438 L 203.742188 141.421875 L 204.027344 138.867188 L 203.640625 136.035156 L 204.085938 132.851562 L 204.40625 132.847656 L 208.125 131.019531 L 211.527344 131.167969 L 212.972656 130.625 L 214.707031 131.179688 L 217.457031 130.429688 L 218.546875 133.496094 L 216.21875 140.980469 Z M 213.632812 144.375 "/>
<path style="fill-rule:evenodd;fill:rgb(74.509804%,74.509804%,74.509804%);fill-opacity:1;stroke-width:0.75;stroke-linecap:round;stroke-linejoin:round;stroke:rgb(0%,0%,0%);stroke-opacity:1;stroke-miterlimit:10;" d="M 258.863281 158.492188 L 253.777344 158.519531 L 252.59375 154.84375 L 250.773438 152.175781 L 249.277344 151.53125 L 247.554688 149.082031 L 247.523438 147.445312 L 245.316406 147.621094 L 241.871094 145.761719 L 242.136719 144.75 L 241.175781 143.621094 L 240.890625 141.121094 L 241.828125 141.695312 L 242.316406 141.257812 L 243.203125 141.28125 L 243.691406 140.507812 L 244.527344 140.792969 L 244.917969 140.476562 L 244.914062 139.78125 L 244.074219 138.414062 L 245.988281 137.804688 L 245.929688 135.351562 L 245.1875 133.980469 L 247.351562 133.277344 L 247.175781 132.675781 L 252.46875 132.804688 L 252.566406 131.144531 L 256.40625 131.140625 L 260.003906 131.953125 L 259.808594 136.691406 Z M 258.863281 158.492188 "/>
<path style="fill-rule:evenodd;fill:rgb(74.509804%,74.509804%,74.509804%);fill-opacity:1;stroke-width:0.75;stroke-linecap:round;stroke-linejoin:round;stroke:rgb(0%,0%,0%);stroke-opacity:1;stroke-miterlimit:10;" d="M 182.996094 154.847656 L 180.859375 147.1875 L 175.664062 142.890625 L 176.109375 141.917969 L 177.941406 141.421875 L 179.097656 140.339844 L 179.101562 138.007812 L 177.578125 134.667969 L 178.410156 133.210938 L 179.332031 132.566406 L 180.203125 132.835938 L 181.109375 133.855469 L 183.582031 134.386719 L 184.753906 135.253906 L 184.851562 136.40625 L 185.933594 136.484375 L 187.953125 139.238281 L 192.648438 142.191406 L 194.082031 144.1875 L 198.550781 143.949219 L 200.261719 145.222656 L 202.035156 145.535156 L 200.777344 148.320312 L 196.878906 153.144531 L 195.667969 155.542969 L 193.984375 155.859375 L 192.878906 155.515625 L 190.460938 155.964844 L 188.710938 155.324219 L 188.238281 154.996094 L 187.996094 153.722656 L 185.882812 153.398438 L 185.191406 154.328125 Z M 182.996094 154.847656 "/>
<path style="fill-rule:evenodd;fill:rgb(74.509804%,74.509804%,74.509804%);fill-opacity:1;stroke-width:0.75;stroke-linecap:round;stroke-linejoin:round;stroke:rgb(0%,0%,0%);stroke-opacity:1;stroke-miterlimit:10;" d="M 417.195312 148.234375 L 407.433594 148.027344 L 398.578125 147.898438 L 399.113281 145.171875 L 400.007812 143.398438 L 399.949219 142.3125 L 400.972656 139.746094 L 401.914062 139.464844 L 402.761719 138.480469 L 403.328125 137.007812 L 404.207031 136.53125 L 404.6875 135.382812 L 417.148438 133.476562 L 418.796875 135.871094 L 418.273438 137.5625 L 419.371094 139.671875 L 417.183594 143.445312 Z M 417.195312 148.234375 "/>
<path style="fill-rule:evenodd;fill:rgb(74.509804%,74.509804%,74.509804%);fill-opacity:1;stroke-width:0.75;stroke-linecap:round;stroke-linejoin:round;stroke:rgb(0%,0%,0%);stroke-opacity:1;stroke-miterlimit:10;" d="M 427.636719 148.355469 L 425.777344 153.257812 L 424.800781 153.773438 L 421.992188 152.871094 L 423.042969 148.746094 L 417.195312 148.234375 L 417.183594 143.445312 L 419.371094 139.671875 L 418.273438 137.5625 L 418.796875 135.871094 L 425.625 133.507812 L 431 134.25 L 433.753906 136.5 L 431.59375 145.175781 L 433.019531 149.042969 Z M 427.636719 148.355469 "/>
<path style="fill-rule:evenodd;fill:rgb(74.509804%,74.509804%,74.509804%);fill-opacity:1;stroke-width:0.75;stroke-linecap:round;stroke-linejoin:round;stroke:rgb(0%,0%,0%);stroke-opacity:1;stroke-miterlimit:10;" d="M 182.996094 154.847656 L 182.320312 155.34375 L 181.957031 156.816406 L 181.007812 157.171875 L 176.464844 157.648438 L 174.96875 156.355469 L 173.472656 157.277344 L 169.984375 157.785156 L 167.648438 157.285156 L 163.433594 155.140625 L 162.453125 154.058594 L 163.546875 152.828125 L 162.730469 151.429688 L 162.515625 149.699219 L 162.949219 148.316406 L 165.867188 147.289062 L 167.925781 144.980469 L 168.34375 142.972656 L 169.890625 141.902344 L 170.796875 140.5625 L 173.539062 140.046875 L 175.433594 139.042969 L 175.761719 138.242188 L 175.542969 137.285156 L 177.335938 137.03125 L 177.421875 136.597656 L 176.710938 135.503906 L 177.578125 134.667969 L 179.101562 138.007812 L 179.097656 140.339844 L 177.941406 141.421875 L 176.109375 141.917969 L 175.664062 142.890625 L 180.859375 147.1875 Z M 182.996094 154.847656 "/>
<path style="fill-rule:evenodd;fill:rgb(74.509804%,74.509804%,74.509804%);fill-opacity:1;stroke-width:0.75;stroke-linecap:round;stroke-linejoin:round;stroke:rgb(0%,0%,0%);stroke-opacity:1;stroke-miterlimit:10;" d="M 271.832031 158.476562 L 258.863281 158.492188 L 259.808594 136.691406 L 281.671875 138.0625 L 281.53125 140.925781 L 280.910156 158.101562 Z M 271.832031 158.476562 "/>
<path style="fill-rule:evenodd;fill:rgb(74.509804%,74.509804%,74.509804%);fill-opacity:1;stroke-width:0.75;stroke-linecap:round;stroke-linejoin:round;stroke:rgb(0%,0%,0%);stroke-opacity:1;stroke-miterlimit:10;" d="M 280.910156 158.101562 L 281.53125 140.925781 L 294.65625 140.910156 L 294.300781 139.273438 L 300.832031 140.027344 L 304.175781 139.816406 L 309.042969 139.675781 L 307.367188 144.472656 L 307.609375 144.929688 L 305.011719 153.421875 L 308.378906 154.613281 L 306.066406 157.882812 L 303.292969 156.171875 L 302.046875 153.558594 L 299.21875 152.183594 L 296.550781 154.808594 L 295.878906 155.957031 L 295.410156 156.097656 L 295.125 155.328125 L 293.003906 157.1875 L 292.570312 156.4375 L 291.738281 156.527344 L 291.320312 156.71875 L 291.414062 157.367188 L 290.601562 157.628906 L 290.109375 158.25 Z M 280.910156 158.101562 "/>
<path style="fill-rule:evenodd;fill:rgb(74.509804%,74.509804%,74.509804%);fill-opacity:1;stroke-width:0.75;stroke-linecap:round;stroke-linejoin:round;stroke:rgb(0%,0%,0%);stroke-opacity:1;stroke-miterlimit:10;" d="M 345.4375 154.441406 L 342.859375 153.621094 L 341.234375 149.089844 L 341.261719 147.695312 L 340.171875 146.855469 L 353.765625 140.515625 L 354.984375 141 L 355.625 139.996094 L 358.351562 140.933594 L 358.878906 141.570312 L 358.769531 142.988281 L 359.824219 146.089844 L 362.507812 149.765625 L 361.332031 150.628906 L 355.792969 154.855469 L 355.753906 154.398438 L 348.175781 154.761719 L 345.648438 153.773438 Z M 345.4375 154.441406 "/>
<path style="fill-rule:evenodd;fill:rgb(74.509804%,74.509804%,74.509804%);fill-opacity:1;stroke-width:0.75;stroke-linecap:round;stroke-linejoin:round;stroke:rgb(0%,0%,0%);stroke-opacity:1;stroke-miterlimit:10;" d="M 248.738281 159.0625 L 230.191406 158.390625 L 228.476562 149.140625 L 231.082031 140.148438 L 234.15625 140.75 L 235.34375 141.707031 L 236.867188 142.152344 L 238.84375 143.851562 L 240.488281 144.179688 L 241.871094 145.761719 L 245.316406 147.621094 L 247.523438 147.445312 L 247.554688 149.082031 L 249.277344 151.53125 L 250.773438 152.175781 L 252.59375 154.84375 L 253.777344 158.519531 Z M 248.738281 159.0625 "/>
<path style="fill-rule:evenodd;fill:rgb(74.509804%,74.509804%,74.509804%);fill-opacity:1;stroke-width:0.75;stroke-linecap:round;stroke-linejoin:round;stroke:rgb(0%,0%,0%);stroke-opacity:1;stroke-miterlimit:10;" d="M 371.054688 162.953125 L 369.726562 159.597656 L 369.75 158.585938 L 369.011719 157.917969 L 368.90625 157.191406 L 367.773438 157.429688 L 367.121094 157.097656 L 364.113281 154.136719 L 361.332031 150.628906 L 362.507812 149.765625 L 369.683594 144.648438 L 371.082031 142.90625 L 371.882812 143.214844 L 373.085938 142.453125 L 373.449219 141.714844 L 374.007812 141.972656 L 374.390625 141.378906 L 376.066406 142.074219 L 380.121094 143.800781 L 380.28125 145.054688 L 382.582031 145.265625 L 383.847656 146.480469 L 383.890625 147.421875 L 383.25 147.546875 L 383.109375 148.191406 L 383.976562 149.445312 L 383.46875 150.082031 L 384.011719 151.613281 L 384.992188 152.4375 L 385.152344 153.597656 L 386.40625 154.257812 L 387.082031 156.132812 L 385.191406 156.269531 L 384.117188 157.777344 L 383.132812 162.878906 L 382.429688 164.324219 L 381.160156 165.15625 L 380.996094 166.523438 L 380.132812 166.738281 L 378.851562 165.476562 L 376.234375 168.148438 L 374.851562 167.84375 L 374.1875 167.128906 L 372.351562 166.503906 Z M 371.054688 162.953125 "/>
<path style="fill-rule:evenodd;fill:rgb(74.509804%,74.509804%,74.509804%);fill-opacity:1;stroke-width:0.75;stroke-linecap:round;stroke-linejoin:round;stroke:rgb(0%,0%,0%);stroke-opacity:1;stroke-miterlimit:10;" d="M 220.015625 156.484375 L 195.667969 155.542969 L 196.878906 153.144531 L 200.777344 148.320312 L 202.035156 145.535156 L 204.136719 143.148438 L 212.222656 141.648438 L 212.835938 143.472656 L 213.632812 144.375 L 215.21875 145.875 L 215.972656 147.476562 L 218.191406 148.34375 L 221.324219 152.453125 Z M 220.015625 156.484375 "/>
<path style="fill-rule:evenodd;fill:rgb(74.509804%,74.509804%,74.509804%);fill-opacity:1;stroke-width:0.75;stroke-linecap:round;stroke-linejoin:round;stroke:rgb(0%,0%,0%);stroke-opacity:1;stroke-miterlimit:10;" d="M 163.863281 160.714844 L 161.058594 159.050781 L 158.972656 159.917969 L 159.238281 160.730469 L 158.855469 161.050781 L 157.324219 160.441406 L 154.472656 161.742188 L 152.539062 161.765625 L 152.222656 162.59375 L 151.171875 162.667969 L 150.617188 162.058594 L 148.246094 162.097656 L 146.066406 161.171875 L 144.113281 162.019531 L 142.824219 163.140625 L 141.222656 161.882812 L 140.621094 160.648438 L 141.664062 157.058594 L 141.605469 155.011719 L 139.816406 152.5625 L 139.394531 152.355469 L 138.449219 152.792969 L 137.554688 151.59375 L 136.882812 149.589844 L 138.519531 148.628906 L 140.148438 148.988281 L 141.851562 148.507812 L 153.363281 143.089844 L 157.464844 142.144531 L 158.789062 142.015625 L 160.082031 142.609375 L 160.234375 144.820312 L 161.101562 146.074219 L 162.84375 147.117188 L 162.949219 148.316406 L 162.515625 149.699219 L 162.730469 151.429688 L 163.546875 152.828125 L 162.453125 154.058594 L 163.433594 155.140625 L 167.648438 157.285156 L 165.386719 157.960938 L 165.183594 159.699219 L 164.640625 160.480469 Z M 163.863281 160.714844 "/>
<path style="fill-rule:evenodd;fill:rgb(74.509804%,74.509804%,74.509804%);fill-opacity:1;stroke-width:0.75;stroke-linecap:round;stroke-linejoin:round;stroke:rgb(0%,0%,0%);stroke-opacity:1;stroke-miterlimit:10;" d="M 324.9375 168.59375 L 324.90625 167.464844 L 322.25 163.933594 L 321.28125 161.632812 L 318.441406 158.394531 L 317.566406 158.046875 L 317.8125 157.734375 L 327.582031 148.421875 L 337.246094 142.0625 L 338.132812 145.761719 L 339.105469 146.164062 L 339.363281 146.84375 L 340.171875 146.855469 L 341.261719 147.695312 L 341.234375 149.089844 L 342.859375 153.621094 L 345.4375 154.441406 L 341.945312 162.558594 L 341.472656 166.710938 L 340.582031 167.296875 L 339.214844 167.320312 L 337.996094 168.621094 L 336.65625 168.476562 L 334.839844 170.441406 L 330.222656 172.097656 L 326.890625 171.539062 Z M 324.9375 168.59375 "/>
<path style="fill-rule:evenodd;fill:rgb(74.509804%,74.509804%,74.509804%);fill-opacity:1;stroke-width:0.75;stroke-linecap:round;stroke-linejoin:round;stroke:rgb(0%,0%,0%);stroke-opacity:1;stroke-miterlimit:10;" d="M 142.824219 163.140625 L 138.953125 168.570312 L 135.234375 169.886719 L 133.742188 168.945312 L 132.367188 166.410156 L 130.0625 164.628906 L 129.738281 163.722656 L 127.933594 161.636719 L 126.179688 161.09375 L 125.566406 159.621094 L 123.875 158.136719 L 124.933594 156.054688 L 123.921875 154.402344 L 124.019531 152.253906 L 123.28125 151.484375 L 123.75 150.144531 L 122.410156 148.960938 L 120.511719 148.664062 L 120.761719 148.152344 L 121.171875 147.222656 L 123.707031 146.65625 L 125.511719 144.863281 L 126.613281 144.804688 L 129.136719 143.808594 L 132.296875 144.265625 L 133.34375 143.316406 L 134.199219 144.664062 L 133.804688 146.121094 L 135.738281 146.710938 L 136.882812 149.589844 L 137.554688 151.59375 L 138.449219 152.792969 L 139.394531 152.355469 L 139.816406 152.5625 L 141.605469 155.011719 L 141.664062 157.058594 L 140.621094 160.648438 L 141.222656 161.882812 Z M 142.824219 163.140625 "/>
<path style="fill-rule:evenodd;fill:rgb(74.509804%,74.509804%,74.509804%);fill-opacity:1;stroke-width:0.75;stroke-linecap:round;stroke-linejoin:round;stroke:rgb(0%,0%,0%);stroke-opacity:1;stroke-miterlimit:10;" d="M 444.273438 120.34375 L 444.707031 120.125 L 454.589844 143.503906 L 447.757812 129.636719 L 446.105469 129.613281 Z M 444.273438 120.34375 "/>
<path style="fill-rule:evenodd;fill:rgb(74.509804%,74.509804%,74.509804%);fill-opacity:1;stroke-width:0.75;stroke-linecap:round;stroke-linejoin:round;stroke:rgb(0%,0%,0%);stroke-opacity:1;stroke-miterlimit:10;" d="M 439.582031 151.832031 L 438.867188 150.011719 L 433.964844 149.828125 L 435.410156 137.972656 L 442.761719 136.335938 L 445.753906 139.210938 L 446.601562 150.035156 L 444.453125 154.621094 Z M 439.582031 151.832031 "/>
<path style="fill-rule:evenodd;fill:rgb(74.509804%,74.509804%,74.509804%);fill-opacity:1;stroke-width:0.75;stroke-linecap:round;stroke-linejoin:round;stroke:rgb(0%,0%,0%);stroke-opacity:1;stroke-miterlimit:10;" d="M 456.917969 149.753906 L 455.082031 144.539062 L 458.398438 152.566406 L 455.398438 173.21875 L 445.742188 175.238281 L 448.242188 172.84375 L 455.605469 170.386719 L 457.601562 155.375 Z M 456.917969 149.753906 "/>
<path style="fill-rule:evenodd;fill:rgb(74.509804%,74.509804%,74.509804%);fill-opacity:1;stroke-width:0.75;stroke-linecap:round;stroke-linejoin:round;stroke:rgb(0%,0%,0%);stroke-opacity:1;stroke-miterlimit:10;" d="M 387.082031 156.132812 L 386.40625 154.257812 L 385.152344 153.597656 L 384.992188 152.4375 L 384.011719 151.613281 L 383.46875 150.082031 L 383.976562 149.445312 L 383.109375 148.191406 L 383.25 147.546875 L 383.890625 147.421875 L 383.847656 146.480469 L 384.589844 146.238281 L 392.445312 150.832031 L 398.578125 147.898438 L 407.433594 148.027344 L 408.511719 150.089844 L 408.554688 151.632812 L 409.511719 152.988281 L 411.515625 153.808594 L 412.410156 154.675781 L 413.550781 156.578125 L 407.246094 157.714844 L 407.652344 162.085938 L 404.335938 163.460938 Z M 387.082031 156.132812 "/>
<path style="fill-rule:evenodd;fill:rgb(74.509804%,74.509804%,74.509804%);fill-opacity:1;stroke-width:0.75;stroke-linecap:round;stroke-linejoin:round;stroke:rgb(0%,0%,0%);stroke-opacity:1;stroke-miterlimit:10;" d="M 408.269531 170.832031 L 407.15625 172.722656 L 398.046875 173.789062 L 396.011719 171.964844 L 383.132812 162.878906 L 384.117188 157.777344 L 385.191406 156.269531 L 387.082031 156.132812 L 392.304688 162.160156 L 404.789062 166.722656 Z M 408.269531 170.832031 "/>
<path style="fill-rule:evenodd;fill:rgb(74.509804%,74.509804%,74.509804%);fill-opacity:1;stroke-width:0.75;stroke-linecap:round;stroke-linejoin:round;stroke:rgb(0%,0%,0%);stroke-opacity:1;stroke-miterlimit:10;" d="M 117.363281 168.371094 L 113.339844 168.585938 L 111.238281 169.839844 L 102.320312 170.871094 L 101.847656 170.046875 L 101.878906 168.960938 L 104.265625 167.59375 L 105.796875 166.089844 L 106.597656 164.039062 L 106.324219 162.625 L 104.347656 162.148438 L 103.425781 162.976562 L 99.46875 161.898438 L 94.707031 161.4375 L 93.625 160.804688 L 91.453125 161.496094 L 90.386719 161.15625 L 92.324219 160.039062 L 93.570312 158.230469 L 95.777344 157.78125 L 98.132812 156.003906 L 102.59375 155.347656 L 105.148438 154.988281 L 107.433594 155.867188 L 109.828125 155.636719 L 111.886719 153.636719 L 114.96875 152.152344 L 116.875 150.667969 L 118.808594 150.503906 L 120.511719 148.664062 L 122.410156 148.960938 L 123.75 150.144531 L 123.28125 151.484375 L 124.019531 152.253906 L 123.921875 154.402344 L 124.933594 156.054688 L 123.875 158.136719 L 121.917969 158.078125 L 121.023438 158.421875 L 118.3125 160.730469 L 116.445312 161.132812 L 115.9375 163.386719 L 117.449219 166.007812 Z M 117.363281 168.371094 "/>
<path style="fill-rule:evenodd;fill:rgb(74.509804%,74.509804%,74.509804%);fill-opacity:1;stroke-width:0.75;stroke-linecap:round;stroke-linejoin:round;stroke:rgb(0%,0%,0%);stroke-opacity:1;stroke-miterlimit:10;" d="M 356.707031 165.972656 L 356.753906 164 L 355.605469 162.84375 L 355.792969 154.855469 L 361.332031 150.628906 L 364.113281 154.136719 L 367.121094 157.097656 L 367.773438 157.429688 L 368.90625 157.191406 L 369.011719 157.917969 L 369.75 158.585938 L 369.726562 159.597656 L 371.054688 162.953125 L 370.152344 163.699219 L 368.40625 163.148438 L 368.3125 163.988281 L 367.378906 165.097656 L 364.648438 165.871094 L 362.730469 167.292969 L 361.933594 166.960938 L 361.328125 165.695312 L 358.632812 166.113281 Z M 356.707031 165.972656 "/>
<path style="fill-rule:evenodd;fill:rgb(74.509804%,74.509804%,74.509804%);fill-opacity:1;stroke-width:0.75;stroke-linecap:round;stroke-linejoin:round;stroke:rgb(0%,0%,0%);stroke-opacity:1;stroke-miterlimit:10;" d="M 297.058594 169.15625 L 293.515625 167.035156 L 292.628906 164.476562 L 291.832031 163.628906 L 290.90625 163.308594 L 290.621094 161.71875 L 289.261719 160.363281 L 290.078125 159.234375 L 290.109375 158.25 L 290.601562 157.628906 L 291.414062 157.367188 L 291.320312 156.71875 L 291.738281 156.527344 L 292.570312 156.4375 L 293.003906 157.1875 L 295.125 155.328125 L 295.410156 156.097656 L 295.878906 155.957031 L 296.550781 154.808594 L 299.21875 152.183594 L 302.046875 153.558594 L 303.292969 156.171875 L 306.066406 157.882812 Z M 297.058594 169.15625 "/>
<path style="fill-rule:evenodd;fill:rgb(74.509804%,74.509804%,74.509804%);fill-opacity:1;stroke-width:0.75;stroke-linecap:round;stroke-linejoin:round;stroke:rgb(0%,0%,0%);stroke-opacity:1;stroke-miterlimit:10;" d="M 176.277344 175.320312 L 176.578125 172.183594 L 172.804688 168.171875 L 171.394531 167.308594 L 169.75 164.699219 L 168.320312 164.25 L 163.855469 164.445312 L 162.96875 162.207031 L 163.144531 161.359375 L 163.863281 160.714844 L 164.640625 160.480469 L 165.183594 159.699219 L 165.386719 157.960938 L 167.648438 157.285156 L 169.984375 157.785156 L 173.472656 157.277344 L 174.96875 156.355469 L 176.464844 157.648438 L 181.007812 157.171875 L 181.957031 156.816406 L 182.320312 155.34375 L 182.996094 154.847656 L 185.191406 154.328125 L 185.882812 153.398438 L 187.996094 153.722656 L 188.238281 154.996094 L 188.710938 155.324219 L 188.132812 166.574219 L 186.421875 171.828125 L 185.457031 173.601562 L 185.203125 175.628906 L 180.644531 175.59375 Z M 176.277344 175.320312 "/>
<path style="fill-rule:evenodd;fill:rgb(74.509804%,74.509804%,74.509804%);fill-opacity:1;stroke-width:0.75;stroke-linecap:round;stroke-linejoin:round;stroke:rgb(0%,0%,0%);stroke-opacity:1;stroke-miterlimit:10;" d="M 341.203125 175.636719 L 341.117188 175.058594 L 337.121094 173.589844 L 334.839844 170.441406 L 336.65625 168.476562 L 337.996094 168.621094 L 339.214844 167.320312 L 340.582031 167.296875 L 341.472656 166.710938 L 341.945312 162.558594 L 345.4375 154.441406 L 345.648438 153.773438 L 348.175781 154.761719 L 355.753906 154.398438 L 355.792969 154.855469 L 355.605469 162.84375 L 356.753906 164 L 356.707031 165.972656 L 355.628906 167.152344 L 355.347656 176.199219 L 353.132812 177.085938 L 352.851562 177.660156 L 351.992188 176.820312 L 350.664062 176.382812 L 349.832031 176.605469 L 348.175781 175.417969 L 346.6875 175.457031 L 344.476562 176.28125 Z M 341.203125 175.636719 "/>
<path style="fill-rule:evenodd;fill:rgb(74.509804%,74.509804%,74.509804%);fill-opacity:1;stroke-width:0.75;stroke-linecap:round;stroke-linejoin:round;stroke:rgb(0%,0%,0%);stroke-opacity:1;stroke-miterlimit:10;" d="M 321.734375 172.375 L 317.257812 171.519531 L 313.085938 171.585938 L 310.394531 172.445312 L 309.898438 173.113281 L 308.746094 173.507812 L 300.808594 175.230469 L 298.601562 174.007812 L 297.636719 172.796875 L 295.578125 171.238281 L 297.058594 169.15625 L 306.066406 157.882812 L 308.378906 154.613281 L 317.8125 157.734375 L 317.566406 158.046875 L 318.441406 158.394531 L 321.28125 161.632812 L 322.25 163.933594 L 324.90625 167.464844 L 324.9375 168.59375 L 323.132812 170.109375 Z M 321.734375 172.375 "/>
<path style="fill-rule:evenodd;fill:rgb(74.509804%,74.509804%,74.509804%);fill-opacity:1;stroke-width:0.75;stroke-linecap:round;stroke-linejoin:round;stroke:rgb(0%,0%,0%);stroke-opacity:1;stroke-miterlimit:10;" d="M 204.367188 176.621094 L 202.664062 176.667969 L 185.203125 175.628906 L 185.457031 173.601562 L 186.421875 171.828125 L 188.132812 166.574219 L 188.710938 155.324219 L 190.460938 155.964844 L 192.878906 155.515625 L 193.984375 155.859375 L 195.667969 155.542969 L 196.390625 156.328125 L 196.023438 157.65625 L 199.070312 163.386719 L 200.703125 166.226562 L 203.046875 167.949219 L 202.546875 168.847656 L 203.085938 170.71875 L 204.511719 171.492188 L 204.859375 175.339844 Z M 204.367188 176.621094 "/>
<path style="fill-rule:evenodd;fill:rgb(74.509804%,74.509804%,74.509804%);fill-opacity:1;stroke-width:0.75;stroke-linecap:round;stroke-linejoin:round;stroke:rgb(0%,0%,0%);stroke-opacity:1;stroke-miterlimit:10;" d="M 220.21875 164.230469 L 199.070312 163.386719 L 196.023438 157.65625 L 196.390625 156.328125 L 195.667969 155.542969 L 220.015625 156.484375 L 220.464844 157.273438 L 220.28125 158.308594 L 220.851562 161.382812 L 220.34375 162.183594 Z M 220.21875 164.230469 "/>
<path style="fill-rule:evenodd;fill:rgb(74.509804%,74.509804%,74.509804%);fill-opacity:1;stroke-width:0.75;stroke-linecap:round;stroke-linejoin:round;stroke:rgb(0%,0%,0%);stroke-opacity:1;stroke-miterlimit:10;" d="M 127.128906 185.289062 L 124.738281 182.164062 L 125.449219 180.886719 L 125.3125 180.457031 L 124.0625 179.390625 L 123.351562 177.921875 L 122.292969 176.875 L 122.203125 173.503906 L 121.652344 173.066406 L 120.300781 173.546875 L 119.390625 173.285156 L 118.28125 171.519531 L 117.363281 168.371094 L 117.449219 166.007812 L 115.9375 163.386719 L 116.445312 161.132812 L 118.3125 160.730469 L 121.023438 158.421875 L 121.917969 158.078125 L 123.875 158.136719 L 125.566406 159.621094 L 126.179688 161.09375 L 127.933594 161.636719 L 129.738281 163.722656 L 130.0625 164.628906 L 132.367188 166.410156 L 133.742188 168.945312 L 135.234375 169.886719 L 134.898438 173.21875 L 132.652344 175.457031 L 132.140625 176.917969 L 132.507812 178.542969 L 129.476562 181.9375 L 129.832031 183.179688 L 131.417969 184.019531 Z M 127.128906 185.289062 "/>
<path style="fill-rule:evenodd;fill:rgb(74.509804%,74.509804%,74.509804%);fill-opacity:1;stroke-width:0.75;stroke-linecap:round;stroke-linejoin:round;stroke:rgb(0%,0%,0%);stroke-opacity:1;stroke-miterlimit:10;" d="M 278.652344 176.863281 L 276.882812 175.242188 L 274.289062 170.542969 L 271.832031 158.476562 L 280.910156 158.101562 L 290.109375 158.25 L 290.078125 159.234375 L 289.261719 160.363281 L 290.621094 161.71875 L 290.90625 163.308594 L 291.832031 163.628906 L 292.628906 164.476562 L 293.515625 167.035156 L 297.058594 169.15625 L 295.578125 171.238281 L 297.636719 172.796875 L 298.601562 174.007812 L 300.808594 175.230469 L 300.753906 175.929688 L 299.679688 176.28125 L 298.582031 176.101562 L 294.773438 174.527344 L 289.800781 177.839844 L 285.242188 183.324219 L 283.523438 181.988281 L 281.015625 181.90625 L 280.09375 181.417969 L 280.03125 178.988281 Z M 278.652344 176.863281 "/>
<path style="fill-rule:evenodd;fill:rgb(74.509804%,74.509804%,74.509804%);fill-opacity:1;stroke-width:0.75;stroke-linecap:round;stroke-linejoin:round;stroke:rgb(0%,0%,0%);stroke-opacity:1;stroke-miterlimit:10;" d="M 216.210938 177.269531 L 217.308594 177.402344 L 218.03125 176.648438 L 218.28125 174.910156 L 217.738281 172.054688 L 219.226562 167.632812 L 221.539062 166.816406 L 221.042969 165.953125 L 219.085938 165.734375 L 220.21875 164.230469 L 220.34375 162.183594 L 220.851562 161.382812 L 220.28125 158.308594 L 228.039062 158.433594 L 228.074219 159.875 L 228.667969 160.640625 L 229.371094 163.042969 L 228.621094 164.058594 L 231.773438 167.234375 L 233.09375 171.269531 L 238.285156 174.390625 L 228.753906 183.363281 L 227.128906 183.808594 L 225.269531 185.195312 L 222.90625 182.136719 L 221.472656 179.933594 L 216.621094 183.332031 L 215.507812 181.777344 L 217.113281 179.714844 L 216.222656 178.304688 Z M 216.210938 177.269531 "/>
<path style="fill-rule:evenodd;fill:rgb(74.509804%,74.509804%,74.509804%);fill-opacity:1;stroke-width:0.75;stroke-linecap:round;stroke-linejoin:round;stroke:rgb(0%,0%,0%);stroke-opacity:1;stroke-miterlimit:10;" d="M 239.871094 175.394531 L 238.285156 174.390625 L 233.09375 171.269531 L 231.773438 167.234375 L 228.621094 164.058594 L 229.371094 163.042969 L 228.667969 160.640625 L 228.074219 159.875 L 228.039062 158.433594 L 230.191406 158.390625 L 248.738281 159.0625 L 245.261719 164.898438 L 240.792969 174.136719 Z M 239.871094 175.394531 "/>
<path style="fill-rule:evenodd;fill:rgb(74.509804%,74.509804%,74.509804%);fill-opacity:1;stroke-width:0.75;stroke-linecap:round;stroke-linejoin:round;stroke:rgb(0%,0%,0%);stroke-opacity:1;stroke-miterlimit:10;" d="M 258.5625 177.3125 L 259.097656 175.914062 L 258.804688 174.277344 L 257.65625 171.824219 L 257.605469 169.851562 L 259.457031 165.878906 L 259.40625 165.324219 L 256.617188 160.683594 L 254.636719 160.132812 L 253.777344 158.519531 L 258.863281 158.492188 L 271.832031 158.476562 L 274.289062 170.542969 L 276.882812 175.242188 L 278.652344 176.863281 L 277.363281 177.148438 L 274.734375 176.128906 L 272.054688 176.433594 L 268.742188 176.089844 L 265.574219 177.046875 L 262.703125 177.308594 L 261.191406 178.03125 L 258.832031 178.0625 Z M 258.5625 177.3125 "/>
<path style="fill-rule:evenodd;fill:rgb(74.509804%,74.509804%,74.509804%);fill-opacity:1;stroke-width:0.75;stroke-linecap:round;stroke-linejoin:round;stroke:rgb(0%,0%,0%);stroke-opacity:1;stroke-miterlimit:10;" d="M 258.5625 177.3125 L 256.878906 175.027344 L 255.953125 176.230469 L 254.957031 175.96875 L 254.761719 177.097656 L 254.371094 177.363281 L 253.421875 176.402344 L 252.132812 176.863281 L 250.933594 174.460938 L 250.347656 174.484375 L 249.738281 175.066406 L 247.550781 176.082031 L 246.550781 176.253906 L 245.503906 175.871094 L 244.386719 176.574219 L 243.09375 176.363281 L 242.023438 176.777344 L 240.726562 175.605469 L 239.871094 175.394531 L 240.792969 174.136719 L 245.261719 164.898438 L 248.738281 159.0625 L 253.777344 158.519531 L 254.636719 160.132812 L 256.617188 160.683594 L 259.40625 165.324219 L 259.457031 165.878906 L 257.605469 169.851562 L 257.65625 171.824219 L 258.804688 174.277344 L 259.097656 175.914062 Z M 258.5625 177.3125 "/>
<path style="fill-rule:evenodd;fill:rgb(74.509804%,74.509804%,74.509804%);fill-opacity:1;stroke-width:0.75;stroke-linecap:round;stroke-linejoin:round;stroke:rgb(0%,0%,0%);stroke-opacity:1;stroke-miterlimit:10;" d="M 150.351562 177.378906 L 149.523438 175.496094 L 149.21875 172.449219 L 148.597656 171.117188 L 148.703125 169.765625 L 142.824219 163.140625 L 144.113281 162.019531 L 146.066406 161.171875 L 148.246094 162.097656 L 150.617188 162.058594 L 151.171875 162.667969 L 152.222656 162.59375 L 152.539062 161.765625 L 154.472656 161.742188 L 157.324219 160.441406 L 158.855469 161.050781 L 159.238281 160.730469 L 158.972656 159.917969 L 161.058594 159.050781 L 163.863281 160.714844 L 163.144531 161.359375 L 162.96875 162.207031 L 163.855469 164.445312 L 161.375 168.886719 L 160.257812 170.167969 L 160.09375 172.410156 L 159.535156 172.421875 L 159.84375 175.085938 L 159.445312 175.601562 L 158.957031 175.617188 L 158.167969 174.261719 L 156.074219 176.3125 L 154.828125 176.105469 L 152.320312 177.109375 Z M 150.351562 177.378906 "/>
<path style="fill-rule:evenodd;fill:rgb(74.509804%,74.509804%,74.509804%);fill-opacity:1;stroke-width:0.75;stroke-linecap:round;stroke-linejoin:round;stroke:rgb(0%,0%,0%);stroke-opacity:1;stroke-miterlimit:10;" d="M 101.605469 172.003906 L 99.097656 172.730469 L 97.4375 172.121094 L 95.492188 172.21875 L 91.816406 173.695312 L 90.117188 173.882812 L 88.761719 172.976562 L 88.257812 171.40625 L 87.089844 169.792969 L 87.160156 168.054688 L 88.152344 165.535156 L 87.878906 163.691406 L 90.386719 161.15625 L 91.453125 161.496094 L 93.625 160.804688 L 94.707031 161.4375 L 99.46875 161.898438 L 103.425781 162.976562 L 104.347656 162.148438 L 106.324219 162.625 L 106.597656 164.039062 L 105.796875 166.089844 L 104.265625 167.59375 L 101.878906 168.960938 L 101.847656 170.046875 L 102.320312 170.871094 Z M 101.605469 172.003906 "/>
<path style="fill-rule:evenodd;fill:rgb(74.509804%,74.509804%,74.509804%);fill-opacity:1;stroke-width:0.75;stroke-linecap:round;stroke-linejoin:round;stroke:rgb(0%,0%,0%);stroke-opacity:1;stroke-miterlimit:10;" d="M 355.347656 176.199219 L 355.628906 167.152344 L 356.707031 165.972656 L 358.632812 166.113281 L 361.328125 165.695312 L 361.933594 166.960938 L 362.730469 167.292969 L 364.648438 165.871094 L 367.378906 165.097656 L 368.3125 163.988281 L 368.40625 163.148438 L 370.152344 163.699219 L 371.054688 162.953125 L 372.351562 166.503906 L 374.1875 167.128906 L 374.851562 167.84375 L 373.683594 167.742188 L 372.078125 169.289062 L 372.152344 170.15625 L 372.96875 171.527344 L 371.042969 173.257812 L 368.695312 172.59375 L 369.457031 177.042969 L 368.492188 177.621094 L 365.613281 181.546875 L 359.878906 185.257812 L 359.320312 185.175781 L 358.878906 184.34375 L 359.027344 180.230469 L 358.484375 178.484375 Z M 355.347656 176.199219 "/>
<path style="fill-rule:evenodd;fill:rgb(74.509804%,74.509804%,74.509804%);fill-opacity:1;stroke-width:0.75;stroke-linecap:round;stroke-linejoin:round;stroke:rgb(0%,0%,0%);stroke-opacity:1;stroke-miterlimit:10;" d="M 136.597656 182.367188 L 131.417969 184.019531 L 129.832031 183.179688 L 129.476562 181.9375 L 132.507812 178.542969 L 132.140625 176.917969 L 132.652344 175.457031 L 134.898438 173.21875 L 135.234375 169.886719 L 138.953125 168.570312 L 142.824219 163.140625 L 148.703125 169.765625 L 148.597656 171.117188 L 149.21875 172.449219 L 149.523438 175.496094 L 150.351562 177.378906 L 146.695312 178.96875 L 145.328125 178.863281 L 145.242188 180.117188 L 144.839844 180.464844 L 141.632812 180.773438 Z M 136.597656 182.367188 "/>
<path style="fill-rule:evenodd;fill:rgb(74.509804%,74.509804%,74.509804%);fill-opacity:1;stroke-width:0.75;stroke-linecap:round;stroke-linejoin:round;stroke:rgb(0%,0%,0%);stroke-opacity:1;stroke-miterlimit:10;" d="M 204.367188 176.621094 L 204.859375 175.339844 L 204.511719 171.492188 L 203.085938 170.71875 L 202.546875 168.847656 L 203.046875 167.949219 L 200.703125 166.226562 L 199.070312 163.386719 L 220.21875 164.230469 L 219.085938 165.734375 L 221.042969 165.953125 L 221.539062 166.816406 L 219.226562 167.632812 L 217.738281 172.054688 L 218.28125 174.910156 L 218.03125 176.648438 L 217.308594 177.402344 L 216.210938 177.269531 Z M 204.367188 176.621094 "/>
<path style="fill-rule:evenodd;fill:rgb(74.509804%,74.509804%,74.509804%);fill-opacity:1;stroke-width:0.75;stroke-linecap:round;stroke-linejoin:round;stroke:rgb(0%,0%,0%);stroke-opacity:1;stroke-miterlimit:10;" d="M 165.9375 175.0625 L 162.984375 174.964844 L 161.148438 175.539062 L 159.84375 175.085938 L 159.535156 172.421875 L 160.09375 172.410156 L 160.257812 170.167969 L 161.375 168.886719 L 163.855469 164.445312 L 168.320312 164.25 L 169.75 164.699219 L 171.394531 167.308594 L 172.804688 168.171875 L 176.578125 172.183594 L 176.277344 175.320312 Z M 165.9375 175.0625 "/>
<path style="fill-rule:evenodd;fill:rgb(74.509804%,74.509804%,74.509804%);fill-opacity:1;stroke-width:0.75;stroke-linecap:round;stroke-linejoin:round;stroke:rgb(0%,0%,0%);stroke-opacity:1;stroke-miterlimit:10;" d="M 127.128906 185.289062 L 109.515625 185.726562 L 108.898438 184.257812 L 107.773438 183.40625 L 107.390625 182.335938 L 103.863281 178.542969 L 103.804688 177.703125 L 100.644531 177.945312 L 99.707031 177.570312 L 100.851562 175.71875 L 100.449219 174.84375 L 101.558594 173.933594 L 101.605469 172.003906 L 102.320312 170.871094 L 111.238281 169.839844 L 113.339844 168.585938 L 117.363281 168.371094 L 118.28125 171.519531 L 119.390625 173.285156 L 120.300781 173.546875 L 121.652344 173.066406 L 122.203125 173.503906 L 122.292969 176.875 L 123.351562 177.921875 L 124.0625 179.390625 L 125.3125 180.457031 L 125.449219 180.886719 L 124.738281 182.164062 Z M 127.128906 185.289062 "/>
<path style="fill-rule:evenodd;fill:rgb(74.509804%,74.509804%,74.509804%);fill-opacity:1;stroke-width:0.75;stroke-linecap:round;stroke-linejoin:round;stroke:rgb(0%,0%,0%);stroke-opacity:1;stroke-miterlimit:10;" d="M 343.339844 200.097656 L 343.34375 201.253906 L 341.480469 202.421875 L 337.148438 208.964844 L 336.375 207.503906 L 335.019531 206.226562 L 334.414062 204.917969 L 334.855469 204.609375 L 334.308594 204.097656 L 333.59375 202.132812 L 332.511719 201.632812 L 331.523438 200.050781 L 330.902344 198.0625 L 326.644531 192.984375 L 324.796875 190.1875 L 322.566406 188.300781 L 320.800781 186.132812 L 319.40625 181.515625 L 319.765625 180.339844 L 320.308594 179.867188 L 320.835938 177.152344 L 320.324219 175.242188 L 320.867188 174.84375 L 320.757812 174.117188 L 321.734375 172.375 L 323.132812 170.109375 L 324.9375 168.59375 L 326.890625 171.539062 L 330.222656 172.097656 L 334.839844 170.441406 L 337.121094 173.589844 L 341.117188 175.058594 L 341.203125 175.636719 L 340.894531 180.136719 L 341.546875 181.6875 L 342.078125 190.535156 L 339.804688 198.898438 L 341.507812 199.699219 L 342.386719 200.609375 Z M 343.339844 200.097656 "/>
<path style="fill-rule:evenodd;fill:rgb(74.509804%,74.509804%,74.509804%);fill-opacity:1;stroke-width:0.75;stroke-linecap:round;stroke-linejoin:round;stroke:rgb(0%,0%,0%);stroke-opacity:1;stroke-miterlimit:10;" d="M 394.035156 181.589844 L 393.992188 180.015625 L 392.015625 177.136719 L 392.773438 176.992188 L 393.023438 175.335938 L 393.851562 173.796875 L 396.011719 171.964844 L 398.046875 173.789062 L 407.15625 172.722656 L 408.269531 170.832031 L 409.28125 168.757812 L 411.453125 169.203125 L 412.921875 172.113281 L 407.164062 176.15625 L 408.671875 177.957031 L 407.851562 181.890625 L 405.519531 184.027344 L 398.09375 186.246094 L 394.109375 183.847656 Z M 394.035156 181.589844 "/>
<path style="fill-rule:evenodd;fill:rgb(74.509804%,74.509804%,74.509804%);fill-opacity:1;stroke-width:0.75;stroke-linecap:round;stroke-linejoin:round;stroke:rgb(0%,0%,0%);stroke-opacity:1;stroke-miterlimit:10;" d="M 75.820312 174.140625 L 78.640625 171.433594 L 80.640625 172.527344 L 84.023438 172.285156 L 86.574219 170.851562 L 87.089844 169.792969 L 88.257812 171.40625 L 88.761719 172.976562 L 90.117188 173.882812 L 91.816406 173.695312 L 95.492188 172.21875 L 97.4375 172.121094 L 99.097656 172.730469 L 101.605469 172.003906 L 101.558594 173.933594 L 100.449219 174.84375 L 100.851562 175.71875 L 99.707031 177.570312 L 99.019531 177.453125 L 94.753906 178.632812 L 92.4375 181.570312 L 90.46875 182.734375 L 90.167969 184.289062 L 88.921875 185.882812 L 83.304688 185.929688 L 74.398438 185.886719 Z M 75.820312 174.140625 "/>
<path style="fill-rule:evenodd;fill:rgb(74.509804%,74.509804%,74.509804%);fill-opacity:1;stroke-width:0.75;stroke-linecap:round;stroke-linejoin:round;stroke:rgb(0%,0%,0%);stroke-opacity:1;stroke-miterlimit:10;" d="M 326.644531 192.984375 L 325.859375 193.601562 L 312.25 193.554688 L 309.453125 194.269531 L 308.75 194.453125 L 308.050781 191.675781 L 307.191406 190.464844 L 303.507812 187.753906 L 300.875 183.296875 L 300.335938 178.980469 L 300.753906 175.929688 L 300.808594 175.230469 L 308.746094 173.507812 L 309.898438 173.113281 L 310.394531 172.445312 L 313.085938 171.585938 L 317.257812 171.519531 L 321.734375 172.375 L 320.757812 174.117188 L 320.867188 174.84375 L 320.324219 175.242188 L 320.835938 177.152344 L 320.308594 179.867188 L 319.765625 180.339844 L 319.40625 181.515625 L 320.800781 186.132812 L 322.566406 188.300781 L 324.796875 190.1875 Z M 326.644531 192.984375 "/>
<path style="fill-rule:evenodd;fill:rgb(74.509804%,74.509804%,74.509804%);fill-opacity:1;stroke-width:0.75;stroke-linecap:round;stroke-linejoin:round;stroke:rgb(0%,0%,0%);stroke-opacity:1;stroke-miterlimit:10;" d="M 389.453125 194.253906 L 389.085938 195.109375 L 388.410156 195.089844 L 387.214844 196.039062 L 384.65625 196.519531 L 384.460938 197.257812 L 383.222656 195.679688 L 383.777344 194.203125 L 382.644531 194.027344 L 381.917969 191.425781 L 379.214844 189.207031 L 377.0625 188.878906 L 375.554688 189.851562 L 369.9375 187.292969 L 363.890625 186.152344 L 361.996094 187.066406 L 359.878906 185.257812 L 365.613281 181.546875 L 368.492188 177.621094 L 369.457031 177.042969 L 368.695312 172.59375 L 371.042969 173.257812 L 373.238281 175 L 382.675781 180.636719 L 383.8125 182.472656 L 385.492188 182.429688 L 385.898438 181.628906 L 386.785156 181.800781 L 387.097656 184.015625 L 386.832031 194.292969 Z M 389.453125 194.253906 "/>
<path style="fill-rule:evenodd;fill:rgb(74.509804%,74.509804%,74.509804%);fill-opacity:1;stroke-width:0.75;stroke-linecap:round;stroke-linejoin:round;stroke:rgb(0%,0%,0%);stroke-opacity:1;stroke-miterlimit:10;" d="M 225.269531 185.195312 L 227.128906 183.808594 L 228.753906 183.363281 L 238.285156 174.390625 L 239.871094 175.394531 L 240.726562 175.605469 L 242.023438 176.777344 L 243.09375 176.363281 L 244.386719 176.574219 L 245.503906 175.871094 L 246.550781 176.253906 L 247.550781 176.082031 L 249.738281 175.066406 L 247.566406 195.125 L 237.335938 195.101562 L 227.003906 195.054688 L 227.628906 188.449219 Z M 225.269531 185.195312 "/>
<path style="fill-rule:evenodd;fill:rgb(74.509804%,74.509804%,74.509804%);fill-opacity:1;stroke-width:0.75;stroke-linecap:round;stroke-linejoin:round;stroke:rgb(0%,0%,0%);stroke-opacity:1;stroke-miterlimit:10;" d="M 265.121094 195.488281 L 247.566406 195.125 L 249.738281 175.066406 L 250.347656 174.484375 L 250.933594 174.460938 L 252.132812 176.863281 L 253.421875 176.402344 L 254.371094 177.363281 L 254.761719 177.097656 L 254.957031 175.96875 L 255.953125 176.230469 L 256.878906 175.027344 L 258.5625 177.3125 L 258.832031 178.0625 L 259.121094 179.789062 L 261.53125 180.535156 L 262.726562 180.175781 L 264.039062 179.1875 L 264.792969 179.164062 L 265.328125 179.648438 L 265.621094 181.113281 L 266.761719 182.945312 L 266.25 184.917969 L 267.410156 187.015625 L 267.988281 190.363281 L 265.921875 193.128906 Z M 265.121094 195.488281 "/>
<path style="fill-rule:evenodd;fill:rgb(74.509804%,74.509804%,74.509804%);fill-opacity:1;stroke-width:0.75;stroke-linecap:round;stroke-linejoin:round;stroke:rgb(0%,0%,0%);stroke-opacity:1;stroke-miterlimit:10;" d="M 290.222656 194.019531 L 289.339844 188.234375 L 287.707031 185.503906 L 285.242188 183.324219 L 289.800781 177.839844 L 294.773438 174.527344 L 298.582031 176.101562 L 299.679688 176.28125 L 300.753906 175.929688 L 300.335938 178.980469 L 300.875 183.296875 L 303.507812 187.753906 L 297.085938 194.21875 Z M 290.222656 194.019531 "/>
<path style="fill-rule:evenodd;fill:rgb(74.509804%,74.509804%,74.509804%);fill-opacity:1;stroke-width:0.75;stroke-linecap:round;stroke-linejoin:round;stroke:rgb(0%,0%,0%);stroke-opacity:1;stroke-miterlimit:10;" d="M 412.410156 154.675781 L 411.515625 153.808594 L 409.511719 152.988281 L 408.554688 151.632812 L 408.511719 150.089844 L 407.433594 148.027344 L 417.195312 148.234375 L 423.042969 148.746094 L 421.992188 152.871094 L 424.800781 153.773438 L 425.777344 153.257812 L 427.636719 148.355469 L 430.347656 150.117188 L 433.964844 149.828125 L 438.867188 150.011719 L 439.582031 151.832031 L 432.589844 163.320312 L 427.019531 167.195312 L 413.28125 163.234375 L 411.769531 161.433594 L 415.03125 158.558594 L 415.546875 156.097656 Z M 412.410156 154.675781 "/>
<path style="fill-rule:evenodd;fill:rgb(74.509804%,74.509804%,74.509804%);fill-opacity:1;stroke-width:0.75;stroke-linecap:round;stroke-linejoin:round;stroke:rgb(0%,0%,0%);stroke-opacity:1;stroke-miterlimit:10;" d="M 434.148438 181.621094 L 435.9375 179.144531 L 441.207031 176.433594 L 445.117188 175.109375 L 443.046875 176.605469 L 439.042969 178.277344 L 434.757812 181.621094 Z M 434.148438 181.621094 "/>
<path style="fill-rule:evenodd;fill:rgb(74.509804%,74.509804%,74.509804%);fill-opacity:1;stroke-width:0.75;stroke-linecap:round;stroke-linejoin:round;stroke:rgb(0%,0%,0%);stroke-opacity:1;stroke-miterlimit:10;" d="M 361.699219 200.140625 L 351.445312 200.625 L 350.898438 200.179688 L 348.738281 200.304688 L 347.515625 199.675781 L 343.339844 200.097656 L 342.386719 200.609375 L 341.507812 199.699219 L 339.804688 198.898438 L 342.078125 190.535156 L 341.546875 181.6875 L 340.894531 180.136719 L 341.203125 175.636719 L 344.476562 176.28125 L 346.6875 175.457031 L 348.175781 175.417969 L 349.832031 176.605469 L 350.664062 176.382812 L 351.992188 176.820312 L 352.851562 177.660156 L 353.132812 177.085938 L 355.347656 176.199219 L 358.484375 178.484375 L 359.027344 180.230469 L 358.878906 184.34375 L 359.320312 185.175781 L 359.878906 185.257812 L 361.996094 187.066406 L 363.199219 189.601562 Z M 361.699219 200.140625 "/>
<path style="fill-rule:evenodd;fill:rgb(74.509804%,74.509804%,74.509804%);fill-opacity:1;stroke-width:0.75;stroke-linecap:round;stroke-linejoin:round;stroke:rgb(0%,0%,0%);stroke-opacity:1;stroke-miterlimit:10;" d="M 275.253906 195.628906 L 265.121094 195.488281 L 265.921875 193.128906 L 267.988281 190.363281 L 267.410156 187.015625 L 266.25 184.917969 L 266.761719 182.945312 L 265.621094 181.113281 L 265.328125 179.648438 L 264.792969 179.164062 L 264.039062 179.1875 L 262.726562 180.175781 L 261.53125 180.535156 L 259.121094 179.789062 L 258.832031 178.0625 L 261.191406 178.03125 L 262.703125 177.308594 L 265.574219 177.046875 L 268.742188 176.089844 L 272.054688 176.433594 L 274.734375 176.128906 L 277.363281 177.148438 L 278.652344 176.863281 L 280.03125 178.988281 L 280.09375 181.417969 L 281.015625 181.90625 L 283.523438 181.988281 L 285.242188 183.324219 L 281.269531 185.300781 L 280.144531 186.449219 L 279.820312 188.230469 L 280.46875 190.207031 L 278.027344 193.28125 L 278.480469 194.96875 L 276.371094 194.957031 Z M 275.253906 195.628906 "/>
<path style="fill-rule:evenodd;fill:rgb(74.509804%,74.509804%,74.509804%);fill-opacity:1;stroke-width:0.75;stroke-linecap:round;stroke-linejoin:round;stroke:rgb(0%,0%,0%);stroke-opacity:1;stroke-miterlimit:10;" d="M 91.109375 185.867188 L 88.921875 185.882812 L 90.167969 184.289062 L 90.46875 182.734375 L 92.4375 181.570312 L 94.753906 178.632812 L 99.019531 177.453125 L 99.707031 177.570312 L 100.644531 177.945312 L 103.804688 177.703125 L 103.863281 178.542969 L 107.390625 182.335938 L 107.773438 183.40625 L 108.898438 184.257812 L 109.515625 185.726562 L 107.9375 185.859375 Z M 91.109375 185.867188 "/>
<path style="fill-rule:evenodd;fill:rgb(74.509804%,74.509804%,74.509804%);fill-opacity:1;stroke-width:0.75;stroke-linecap:round;stroke-linejoin:round;stroke:rgb(0%,0%,0%);stroke-opacity:1;stroke-miterlimit:10;" d="M 396.011719 171.964844 L 393.851562 173.796875 L 393.023438 175.335938 L 392.773438 176.992188 L 392.015625 177.136719 L 393.992188 180.015625 L 394.035156 181.589844 L 389.503906 180.417969 L 387.042969 180.636719 L 386.785156 181.800781 L 385.898438 181.628906 L 385.492188 182.429688 L 383.8125 182.472656 L 382.675781 180.636719 L 373.238281 175 L 371.042969 173.257812 L 372.96875 171.527344 L 372.152344 170.15625 L 372.078125 169.289062 L 373.683594 167.742188 L 374.851562 167.84375 L 376.234375 168.148438 L 378.851562 165.476562 L 380.132812 166.738281 L 380.996094 166.523438 L 381.160156 165.15625 L 382.429688 164.324219 L 383.132812 162.878906 Z M 396.011719 171.964844 "/>
<path style="fill-rule:evenodd;fill:rgb(74.509804%,74.509804%,74.509804%);fill-opacity:1;stroke-width:0.75;stroke-linecap:round;stroke-linejoin:round;stroke:rgb(0%,0%,0%);stroke-opacity:1;stroke-miterlimit:10;" d="M 406.859375 190.269531 L 407.789062 191.101562 L 402.394531 193.347656 L 389.453125 194.253906 L 386.832031 194.292969 L 387.097656 184.015625 L 386.785156 181.800781 L 391.523438 182.5 L 395.339844 188.671875 Z M 406.859375 190.269531 "/>
<path style="fill-rule:evenodd;fill:rgb(74.509804%,74.509804%,74.509804%);fill-opacity:1;stroke-width:0.75;stroke-linecap:round;stroke-linejoin:round;stroke:rgb(0%,0%,0%);stroke-opacity:1;stroke-miterlimit:10;" d="M 285.214844 204.703125 L 276.054688 195.871094 L 275.253906 195.628906 L 276.371094 194.957031 L 278.480469 194.96875 L 278.027344 193.28125 L 280.46875 190.207031 L 279.820312 188.230469 L 280.144531 186.449219 L 281.269531 185.300781 L 285.242188 183.324219 L 287.707031 185.503906 L 289.339844 188.234375 L 290.222656 194.019531 L 290.042969 195.4375 L 290.757812 197.371094 Z M 285.214844 204.703125 "/>
<path style="fill-rule:evenodd;fill:rgb(74.509804%,74.509804%,74.509804%);fill-opacity:1;stroke-width:0.75;stroke-linecap:round;stroke-linejoin:round;stroke:rgb(0%,0%,0%);stroke-opacity:1;stroke-miterlimit:10;" d="M 368.25 214.09375 L 366.617188 213.441406 L 361.699219 200.140625 L 363.199219 189.601562 L 361.996094 187.066406 L 363.890625 186.152344 L 369.9375 187.292969 L 375.554688 189.851562 L 377.0625 188.878906 L 379.214844 189.207031 L 381.917969 191.425781 L 382.644531 194.027344 L 383.777344 194.203125 L 383.222656 195.679688 L 384.460938 197.257812 L 385.125 197.800781 L 385.972656 202.011719 L 384.792969 203.296875 Z M 368.25 214.09375 "/>
<path style="fill-rule:evenodd;fill:rgb(74.509804%,74.509804%,74.509804%);fill-opacity:1;stroke-width:0.75;stroke-linecap:round;stroke-linejoin:round;stroke:rgb(0%,0%,0%);stroke-opacity:1;stroke-miterlimit:10;" d="M 310.828125 213.023438 L 308.449219 214.273438 L 307.09375 214.5 L 306.027344 217.160156 L 304.863281 217.75 L 304.683594 218.90625 L 303.683594 219.90625 L 303.1875 221.394531 L 301.734375 222.175781 L 285.597656 205.5 L 285.214844 204.703125 L 290.757812 197.371094 L 290.042969 195.4375 L 290.222656 194.019531 L 297.085938 194.21875 L 303.507812 187.753906 L 307.191406 190.464844 L 308.050781 191.675781 L 308.75 194.453125 L 309.453125 194.269531 L 311.816406 199.355469 L 313.480469 202 L 311.34375 208.285156 L 311.644531 211.417969 Z M 310.828125 213.023438 "/>
<path style="fill-rule:evenodd;fill:rgb(74.509804%,74.509804%,74.509804%);fill-opacity:1;stroke-width:0.75;stroke-linecap:round;stroke-linejoin:round;stroke:rgb(0%,0%,0%);stroke-opacity:1;stroke-miterlimit:10;" d="M 385.125 197.800781 L 384.460938 197.257812 L 384.65625 196.519531 L 387.214844 196.039062 L 388.410156 195.089844 L 389.085938 195.109375 L 389.453125 194.253906 L 402.394531 193.347656 L 407.789062 191.101562 L 406.859375 190.269531 L 405.863281 186.894531 L 411.941406 186.648438 L 415.609375 184.421875 L 416.519531 188.152344 L 419.117188 188.320312 L 420.617188 186.578125 L 421.253906 188.015625 L 414.53125 196.699219 L 407.800781 200.164062 L 389.386719 201.265625 Z M 385.125 197.800781 "/>
<path style="fill-rule:evenodd;fill:rgb(74.509804%,74.509804%,74.509804%);fill-opacity:1;stroke-width:0.75;stroke-linecap:round;stroke-linejoin:round;stroke:rgb(0%,0%,0%);stroke-opacity:1;stroke-miterlimit:10;" d="M 411.3125 207.15625 L 410.839844 205.945312 L 411.59375 205.773438 L 413.902344 201.335938 L 416.160156 197.992188 L 418.65625 195.226562 L 422.421875 191.824219 L 414.5625 201.566406 Z M 411.3125 207.15625 "/>
<path style="fill-rule:evenodd;fill:rgb(74.509804%,74.509804%,74.509804%);fill-opacity:1;stroke-width:0.75;stroke-linecap:round;stroke-linejoin:round;stroke:rgb(0%,0%,0%);stroke-opacity:1;stroke-miterlimit:10;" d="M 336.945312 217.394531 L 334.023438 219.003906 L 329.300781 218.609375 L 320.636719 214.40625 L 319.695312 214.414062 L 319.316406 213.664062 L 313.109375 214.183594 L 312.046875 213.976562 L 310.828125 213.023438 L 311.644531 211.417969 L 311.34375 208.285156 L 313.480469 202 L 311.816406 199.355469 L 309.453125 194.269531 L 312.25 193.554688 L 325.859375 193.601562 L 326.644531 192.984375 L 330.902344 198.0625 L 331.523438 200.050781 L 332.511719 201.632812 L 333.59375 202.132812 L 334.308594 204.097656 L 334.855469 204.609375 L 334.414062 204.917969 L 335.019531 206.226562 L 336.375 207.503906 L 337.148438 208.964844 L 336.90625 210.332031 L 337.222656 211.421875 L 340.921875 213.804688 Z M 336.945312 217.394531 "/>
<path style="fill-rule:evenodd;fill:rgb(74.509804%,74.509804%,74.509804%);fill-opacity:1;stroke-width:0.75;stroke-linecap:round;stroke-linejoin:round;stroke:rgb(0%,0%,0%);stroke-opacity:1;stroke-miterlimit:10;" d="M 347.144531 220.894531 L 342.628906 219.019531 L 341.566406 219.117188 L 340.273438 219.863281 L 339.84375 219.710938 L 336.945312 217.394531 L 340.921875 213.804688 L 337.222656 211.421875 L 336.90625 210.332031 L 337.148438 208.964844 L 341.480469 202.421875 L 343.34375 201.253906 L 343.339844 200.097656 L 347.515625 199.675781 L 348.738281 200.304688 L 350.898438 200.179688 L 351.445312 200.625 L 361.699219 200.140625 L 366.617188 213.441406 L 368.25 214.09375 L 366.164062 216.007812 L 365.171875 215.257812 L 365.476562 216.445312 L 359.074219 222.152344 L 356.535156 219.265625 L 355.699219 217.753906 L 353.117188 219.023438 L 351.65625 218.53125 L 350.695312 219.425781 L 350.441406 218.914062 L 349.175781 218.40625 L 348.507812 219.113281 L 348.84375 220.300781 Z M 347.144531 220.894531 "/>
<path style="fill-rule:evenodd;fill:rgb(74.509804%,74.509804%,74.509804%);fill-opacity:1;stroke-width:0.75;stroke-linecap:round;stroke-linejoin:round;stroke:rgb(0%,0%,0%);stroke-opacity:1;stroke-miterlimit:10;" d="M 319.871094 241.046875 L 301.734375 222.175781 L 303.1875 221.394531 L 303.683594 219.90625 L 304.683594 218.90625 L 304.863281 217.75 L 306.027344 217.160156 L 307.09375 214.5 L 308.449219 214.273438 L 310.828125 213.023438 L 312.046875 213.976562 L 313.109375 214.183594 L 319.316406 213.664062 L 319.695312 214.414062 L 320.636719 214.40625 L 329.300781 218.609375 L 334.023438 219.003906 L 336.945312 217.394531 L 339.84375 219.710938 L 340.273438 219.863281 L 341.566406 219.117188 L 336.960938 226.910156 L 332.089844 227.597656 L 332.628906 228.425781 L 329.84375 231.003906 L 326.929688 229.921875 L 325.433594 230.113281 L 324.699219 231.210938 L 323.867188 235.199219 L 322.8125 236.703125 L 320.972656 237.785156 L 320.78125 239.492188 Z M 319.871094 241.046875 "/>
<path style="fill-rule:evenodd;fill:rgb(74.509804%,74.509804%,74.509804%);fill-opacity:1;stroke-width:0.75;stroke-linecap:round;stroke-linejoin:round;stroke:rgb(0%,0%,0%);stroke-opacity:1;stroke-miterlimit:10;" d="M 349.96875 228.292969 L 349.746094 225.480469 L 349.339844 225.421875 L 349 224.449219 L 348.257812 224.121094 L 348.46875 223.332031 L 347.964844 223.222656 L 347.777344 221.75 L 347.144531 220.894531 L 348.84375 220.300781 L 348.507812 219.113281 L 349.175781 218.40625 L 350.441406 218.914062 L 350.695312 219.425781 L 351.65625 218.53125 L 353.117188 219.023438 L 355.699219 217.753906 L 356.535156 219.265625 L 359.074219 222.152344 L 354.140625 228.105469 L 352.84375 234.65625 L 351.441406 235.035156 Z M 349.96875 228.292969 "/>
<path style="fill-rule:evenodd;fill:rgb(74.509804%,74.509804%,74.509804%);fill-opacity:1;stroke-width:0.75;stroke-linecap:round;stroke-linejoin:round;stroke:rgb(0%,0%,0%);stroke-opacity:1;stroke-miterlimit:10;" d="M 319.871094 241.046875 L 320.78125 239.492188 L 320.972656 237.785156 L 322.8125 236.703125 L 323.867188 235.199219 L 324.699219 231.210938 L 325.433594 230.113281 L 326.929688 229.921875 L 329.84375 231.003906 L 332.628906 228.425781 L 332.089844 227.597656 L 336.960938 226.910156 L 341.566406 219.117188 L 342.628906 219.019531 L 347.144531 220.894531 L 347.777344 221.75 L 347.964844 223.222656 L 348.46875 223.332031 L 348.257812 224.121094 L 349 224.449219 L 349.339844 225.421875 L 349.746094 225.480469 L 349.96875 228.292969 L 350.066406 238.71875 L 346.761719 242.871094 L 323.164062 244.582031 Z M 319.871094 241.046875 "/>
</g>
</svg>
